<?xml version="1.0" encoding="UTF-8" standalone="no"?>
<!DOCTYPE svg PUBLIC "-//W3C//DTD SVG 1.1//EN"
 "http://www.w3.org/Graphics/SVG/1.1/DTD/svg11.dtd">
<!-- Generated by graphviz version 12.2.1 (0)
 -->
<!-- Title: build_dependencies Pages: 1 -->
<svg width="939pt" height="996pt"
 viewBox="0.00 0.00 938.50 996.47" xmlns="http://www.w3.org/2000/svg" xmlns:xlink="http://www.w3.org/1999/xlink">
<g id="graph0" class="graph" transform="scale(1 1) rotate(0) translate(4 992.47)">
<title>build_dependencies</title>
<polygon fill="white" stroke="none" points="-4,4 -4,-992.47 934.5,-992.47 934.5,4 -4,4"/>
<!-- website -->
<g id="node1" class="node">
<title>website</title>
<path fill="none" stroke="black" d="M49.75,-520C49.75,-520 12,-520 12,-520 6,-520 0,-514 0,-508 0,-508 0,-496 0,-496 0,-490 6,-484 12,-484 12,-484 49.75,-484 49.75,-484 55.75,-484 61.75,-490 61.75,-496 61.75,-496 61.75,-508 61.75,-508 61.75,-514 55.75,-520 49.75,-520"/>
<text text-anchor="middle" x="30.88" y="-496.2" font-family="Helvetica,sans-Serif" font-size="14.00">website</text>
</g>
<!-- archive -->
<g id="node2" class="node">
<title>archive</title>
<path fill="none" stroke="black" d="M482.25,-679C482.25,-679 446.75,-679 446.75,-679 440.75,-679 434.75,-673 434.75,-667 434.75,-667 434.75,-655 434.75,-655 434.75,-649 440.75,-643 446.75,-643 446.75,-643 482.25,-643 482.25,-643 488.25,-643 494.25,-649 494.25,-655 494.25,-655 494.25,-667 494.25,-667 494.25,-673 488.25,-679 482.25,-679"/>
<text text-anchor="middle" x="464.5" y="-655.2" font-family="Helvetica,sans-Serif" font-size="14.00">archive</text>
</g>
<!-- website&#45;&gt;archive -->
<g id="edge27" class="edge">
<title>website&#45;&gt;archive</title>
<path fill="none" stroke="black" d="M34.29,-520.2C39.53,-551.61 55.11,-615.36 97.75,-644 198.18,-711.45 351.43,-688.01 423.46,-671.54"/>
<polygon fill="black" stroke="black" points="423.9,-675.03 432.83,-669.32 422.29,-668.22 423.9,-675.03"/>
</g>
<!-- asset:CNAME -->
<g id="node6" class="node">
<title>asset:CNAME</title>
<path fill="none" stroke="black" d="M260.75,-360C260.75,-360 183.25,-360 183.25,-360 177.25,-360 171.25,-354 171.25,-348 171.25,-348 171.25,-336 171.25,-336 171.25,-330 177.25,-324 183.25,-324 183.25,-324 260.75,-324 260.75,-324 266.75,-324 272.75,-330 272.75,-336 272.75,-336 272.75,-348 272.75,-348 272.75,-354 266.75,-360 260.75,-360"/>
<text text-anchor="middle" x="222" y="-336.2" font-family="Helvetica,sans-Serif" font-size="14.00">asset:CNAME</text>
</g>
<!-- website&#45;&gt;asset:CNAME -->
<g id="edge28" class="edge">
<title>website&#45;&gt;asset:CNAME</title>
<path fill="none" stroke="black" d="M36.18,-483.68C43.72,-455.7 62.04,-402.57 97.75,-374 115.24,-360.01 138.18,-352.08 159.53,-347.61"/>
<polygon fill="black" stroke="black" points="160.16,-351.05 169.35,-345.79 158.88,-344.17 160.16,-351.05"/>
</g>
<!-- asset:assets/archive.js -->
<g id="node7" class="node">
<title>asset:assets/archive.js</title>
<path fill="none" stroke="black" d="M285.88,-306C285.88,-306 158.12,-306 158.12,-306 152.12,-306 146.12,-300 146.12,-294 146.12,-294 146.12,-282 146.12,-282 146.12,-276 152.12,-270 158.12,-270 158.12,-270 285.88,-270 285.88,-270 291.88,-270 297.88,-276 297.88,-282 297.88,-282 297.88,-294 297.88,-294 297.88,-300 291.88,-306 285.88,-306"/>
<text text-anchor="middle" x="222" y="-282.2" font-family="Helvetica,sans-Serif" font-size="14.00">asset:assets/archive.js</text>
</g>
<!-- website&#45;&gt;asset:assets/archive.js -->
<g id="edge29" class="edge">
<title>website&#45;&gt;asset:assets/archive.js</title>
<path fill="none" stroke="black" d="M32.68,-483.65C35.38,-446 47.07,-359.8 97.75,-315 108.3,-305.67 121.33,-299.32 134.93,-295.05"/>
<polygon fill="black" stroke="black" points="135.73,-298.46 144.46,-292.45 133.89,-291.71 135.73,-298.46"/>
</g>
<!-- asset:assets/favicon.svg -->
<g id="node8" class="node">
<title>asset:assets/favicon.svg</title>
<path fill="none" stroke="black" d="M291.12,-252C291.12,-252 152.88,-252 152.88,-252 146.88,-252 140.88,-246 140.88,-240 140.88,-240 140.88,-228 140.88,-228 140.88,-222 146.88,-216 152.88,-216 152.88,-216 291.12,-216 291.12,-216 297.12,-216 303.12,-222 303.12,-228 303.12,-228 303.12,-240 303.12,-240 303.12,-246 297.12,-252 291.12,-252"/>
<text text-anchor="middle" x="222" y="-228.2" font-family="Helvetica,sans-Serif" font-size="14.00">asset:assets/favicon.svg</text>
</g>
<!-- website&#45;&gt;asset:assets/favicon.svg -->
<g id="edge30" class="edge">
<title>website&#45;&gt;asset:assets/favicon.svg</title>
<path fill="none" stroke="black" d="M34.4,-483.77C41.78,-433.09 64.89,-292.22 97.75,-261 106.75,-252.45 117.8,-246.36 129.55,-242.07"/>
<polygon fill="black" stroke="black" points="130.59,-245.41 139.07,-239.06 128.48,-238.74 130.59,-245.41"/>
</g>
<!-- asset:assets/indiewebcamp&#45;button.svg -->
<g id="node9" class="node">
<title>asset:assets/indiewebcamp&#45;button.svg</title>
<path fill="none" stroke="black" d="M334.25,-198C334.25,-198 109.75,-198 109.75,-198 103.75,-198 97.75,-192 97.75,-186 97.75,-186 97.75,-174 97.75,-174 97.75,-168 103.75,-162 109.75,-162 109.75,-162 334.25,-162 334.25,-162 340.25,-162 346.25,-168 346.25,-174 346.25,-174 346.25,-186 346.25,-186 346.25,-192 340.25,-198 334.25,-198"/>
<text text-anchor="middle" x="222" y="-174.2" font-family="Helvetica,sans-Serif" font-size="14.00">asset:assets/indiewebcamp&#45;button.svg</text>
</g>
<!-- website&#45;&gt;asset:assets/indiewebcamp&#45;button.svg -->
<g id="edge31" class="edge">
<title>website&#45;&gt;asset:assets/indiewebcamp&#45;button.svg</title>
<path fill="none" stroke="black" d="M33.44,-483.58C38.75,-425.31 58.06,-246.53 97.75,-207 98.25,-206.5 98.75,-206.02 99.26,-205.54"/>
<polygon fill="black" stroke="black" points="101.29,-208.4 106.89,-199.41 96.9,-202.94 101.29,-208.4"/>
</g>
<!-- asset:assets/preview.png -->
<g id="node10" class="node">
<title>asset:assets/preview.png</title>
<path fill="none" stroke="black" d="M293.75,-144C293.75,-144 150.25,-144 150.25,-144 144.25,-144 138.25,-138 138.25,-132 138.25,-132 138.25,-120 138.25,-120 138.25,-114 144.25,-108 150.25,-108 150.25,-108 293.75,-108 293.75,-108 299.75,-108 305.75,-114 305.75,-120 305.75,-120 305.75,-132 305.75,-132 305.75,-138 299.75,-144 293.75,-144"/>
<text text-anchor="middle" x="222" y="-120.2" font-family="Helvetica,sans-Serif" font-size="14.00">asset:assets/preview.png</text>
</g>
<!-- website&#45;&gt;asset:assets/preview.png -->
<g id="edge32" class="edge">
<title>website&#45;&gt;asset:assets/preview.png</title>
<path fill="none" stroke="black" d="M32.75,-483.51C36.22,-418.39 51.14,-200.99 97.75,-153 105.96,-144.55 116.17,-138.45 127.16,-134.1"/>
<polygon fill="black" stroke="black" points="128.14,-137.47 136.48,-130.93 125.88,-130.84 128.14,-137.47"/>
</g>
<!-- asset:assets/style.css -->
<g id="node11" class="node">
<title>asset:assets/style.css</title>
<path fill="none" stroke="black" d="M283.25,-90C283.25,-90 160.75,-90 160.75,-90 154.75,-90 148.75,-84 148.75,-78 148.75,-78 148.75,-66 148.75,-66 148.75,-60 154.75,-54 160.75,-54 160.75,-54 283.25,-54 283.25,-54 289.25,-54 295.25,-60 295.25,-66 295.25,-66 295.25,-78 295.25,-78 295.25,-84 289.25,-90 283.25,-90"/>
<text text-anchor="middle" x="222" y="-66.2" font-family="Helvetica,sans-Serif" font-size="14.00">asset:assets/style.css</text>
</g>
<!-- website&#45;&gt;asset:assets/style.css -->
<g id="edge33" class="edge">
<title>website&#45;&gt;asset:assets/style.css</title>
<path fill="none" stroke="black" d="M32.23,-483.69C34.01,-412.54 44.11,-155.6 97.75,-99 108.42,-87.74 122.62,-80.65 137.57,-76.27"/>
<polygon fill="black" stroke="black" points="138.23,-79.72 147.09,-73.91 136.54,-72.92 138.23,-79.72"/>
</g>
<!-- blogroll_feed -->
<g id="node12" class="node">
<title>blogroll_feed</title>
<path fill="none" stroke="black" d="M256.62,-972C256.62,-972 187.38,-972 187.38,-972 181.38,-972 175.38,-966 175.38,-960 175.38,-960 175.38,-948 175.38,-948 175.38,-942 181.38,-936 187.38,-936 187.38,-936 256.62,-936 256.62,-936 262.62,-936 268.62,-942 268.62,-948 268.62,-948 268.62,-960 268.62,-960 268.62,-966 262.62,-972 256.62,-972"/>
<text text-anchor="middle" x="222" y="-948.2" font-family="Helvetica,sans-Serif" font-size="14.00">blogroll_feed</text>
</g>
<!-- website&#45;&gt;blogroll_feed -->
<g id="edge34" class="edge">
<title>website&#45;&gt;blogroll_feed</title>
<path fill="none" stroke="black" d="M32.16,-520.02C33.68,-592.47 42.99,-861.56 97.75,-922 114.4,-940.37 140.11,-948.79 163.76,-952.45"/>
<polygon fill="black" stroke="black" points="163.29,-955.91 173.65,-953.69 164.16,-948.97 163.29,-955.91"/>
</g>
<!-- blogroll_opml -->
<g id="node13" class="node">
<title>blogroll_opml</title>
<path fill="none" stroke="black" d="M258.5,-36C258.5,-36 185.5,-36 185.5,-36 179.5,-36 173.5,-30 173.5,-24 173.5,-24 173.5,-12 173.5,-12 173.5,-6 179.5,0 185.5,0 185.5,0 258.5,0 258.5,0 264.5,0 270.5,-6 270.5,-12 270.5,-12 270.5,-24 270.5,-24 270.5,-30 264.5,-36 258.5,-36"/>
<text text-anchor="middle" x="222" y="-12.2" font-family="Helvetica,sans-Serif" font-size="14.00">blogroll_opml</text>
</g>
<!-- website&#45;&gt;blogroll_opml -->
<g id="edge35" class="edge">
<title>website&#45;&gt;blogroll_opml</title>
<path fill="none" stroke="black" d="M31.84,-483.67C32.1,-406.64 37.09,-110.23 97.75,-45 114.03,-27.49 138.83,-20.01 161.93,-17.18"/>
<polygon fill="black" stroke="black" points="161.94,-20.69 171.58,-16.28 161.3,-13.72 161.94,-20.69"/>
</g>
<!-- events_calendar -->
<g id="node15" class="node">
<title>events_calendar</title>
<path fill="none" stroke="black" d="M510,-841C510,-841 419,-841 419,-841 413,-841 407,-835 407,-829 407,-829 407,-817 407,-817 407,-811 413,-805 419,-805 419,-805 510,-805 510,-805 516,-805 522,-811 522,-817 522,-817 522,-829 522,-829 522,-835 516,-841 510,-841"/>
<text text-anchor="middle" x="464.5" y="-817.2" font-family="Helvetica,sans-Serif" font-size="14.00">events_calendar</text>
</g>
<!-- website&#45;&gt;events_calendar -->
<g id="edge36" class="edge">
<title>website&#45;&gt;events_calendar</title>
<path fill="none" stroke="black" d="M33.78,-520.25C39.85,-574.66 60.55,-734.13 97.75,-768 140.19,-806.65 301.75,-818.14 395.35,-821.56"/>
<polygon fill="black" stroke="black" points="395.06,-825.05 405.17,-821.89 395.3,-818.05 395.06,-825.05"/>
</g>
<!-- events_feed -->
<g id="node16" class="node">
<title>events_feed</title>
<path fill="none" stroke="black" d="M497.25,-787C497.25,-787 431.75,-787 431.75,-787 425.75,-787 419.75,-781 419.75,-775 419.75,-775 419.75,-763 419.75,-763 419.75,-757 425.75,-751 431.75,-751 431.75,-751 497.25,-751 497.25,-751 503.25,-751 509.25,-757 509.25,-763 509.25,-763 509.25,-775 509.25,-775 509.25,-781 503.25,-787 497.25,-787"/>
<text text-anchor="middle" x="464.5" y="-763.2" font-family="Helvetica,sans-Serif" font-size="14.00">events_feed</text>
</g>
<!-- website&#45;&gt;events_feed -->
<g id="edge37" class="edge">
<title>website&#45;&gt;events_feed</title>
<path fill="none" stroke="black" d="M31.2,-520.37C30.71,-563.34 36.06,-670.71 97.75,-723 185.35,-797.25 329.82,-790.01 408.42,-779.04"/>
<polygon fill="black" stroke="black" points="408.64,-782.55 418.02,-777.63 407.62,-775.62 408.64,-782.55"/>
</g>
<!-- homepage -->
<g id="node18" class="node">
<title>homepage</title>
<path fill="none" stroke="black" d="M492.75,-733C492.75,-733 436.25,-733 436.25,-733 430.25,-733 424.25,-727 424.25,-721 424.25,-721 424.25,-709 424.25,-709 424.25,-703 430.25,-697 436.25,-697 436.25,-697 492.75,-697 492.75,-697 498.75,-697 504.75,-703 504.75,-709 504.75,-709 504.75,-721 504.75,-721 504.75,-727 498.75,-733 492.75,-733"/>
<text text-anchor="middle" x="464.5" y="-709.2" font-family="Helvetica,sans-Serif" font-size="14.00">homepage</text>
</g>
<!-- website&#45;&gt;homepage -->
<g id="edge38" class="edge">
<title>website&#45;&gt;homepage</title>
<path fill="none" stroke="black" d="M32.56,-520.37C35.02,-557.53 46.3,-641.44 97.75,-681 189.84,-751.8 336.05,-739.06 412.74,-725.82"/>
<polygon fill="black" stroke="black" points="413.28,-729.28 422.49,-724.06 412.03,-722.39 413.28,-729.28"/>
</g>
<!-- members_dir -->
<g id="node19" class="node">
<title>members_dir</title>
<path fill="none" stroke="black" d="M500.62,-933C500.62,-933 428.38,-933 428.38,-933 422.38,-933 416.38,-927 416.38,-921 416.38,-921 416.38,-909 416.38,-909 416.38,-903 422.38,-897 428.38,-897 428.38,-897 500.62,-897 500.62,-897 506.62,-897 512.62,-903 512.62,-909 512.62,-909 512.62,-921 512.62,-921 512.62,-927 506.62,-933 500.62,-933"/>
<text text-anchor="middle" x="464.5" y="-909.2" font-family="Helvetica,sans-Serif" font-size="14.00">members_dir</text>
</g>
<!-- website&#45;&gt;members_dir -->
<g id="edge39" class="edge">
<title>website&#45;&gt;members_dir</title>
<path fill="none" stroke="black" d="M32.13,-520.29C33.52,-590.16 42.34,-838.75 97.75,-889 141.33,-928.52 312.66,-924.53 404.54,-919.25"/>
<polygon fill="black" stroke="black" points="404.59,-922.75 414.36,-918.66 404.17,-915.77 404.59,-922.75"/>
</g>
<!-- newsletter -->
<g id="node20" class="node">
<title>newsletter</title>
<path fill="none" stroke="black" d="M491.25,-571C491.25,-571 437.75,-571 437.75,-571 431.75,-571 425.75,-565 425.75,-559 425.75,-559 425.75,-547 425.75,-547 425.75,-541 431.75,-535 437.75,-535 437.75,-535 491.25,-535 491.25,-535 497.25,-535 503.25,-541 503.25,-547 503.25,-547 503.25,-559 503.25,-559 503.25,-565 497.25,-571 491.25,-571"/>
<text text-anchor="middle" x="464.5" y="-547.2" font-family="Helvetica,sans-Serif" font-size="14.00">newsletter</text>
</g>
<!-- website&#45;&gt;newsletter -->
<g id="edge40" class="edge">
<title>website&#45;&gt;newsletter</title>
<path fill="none" stroke="black" d="M61.94,-508.53C73.15,-510.81 85.99,-513.23 97.75,-515 210.48,-531.94 343.89,-543.74 414.29,-549.32"/>
<polygon fill="black" stroke="black" points="413.69,-552.79 423.94,-550.08 414.24,-545.81 413.69,-552.79"/>
</g>
<!-- page:2026&#45;se/index.html -->
<g id="node21" class="node">
<title>page:2026&#45;se/index.html</title>
<path fill="none" stroke="black" d="M534.75,-517C534.75,-517 394.25,-517 394.25,-517 388.25,-517 382.25,-511 382.25,-505 382.25,-505 382.25,-493 382.25,-493 382.25,-487 388.25,-481 394.25,-481 394.25,-481 534.75,-481 534.75,-481 540.75,-481 546.75,-487 546.75,-493 546.75,-493 546.75,-505 546.75,-505 546.75,-511 540.75,-517 534.75,-517"/>
<text text-anchor="middle" x="464.5" y="-493.2" font-family="Helvetica,sans-Serif" font-size="14.00">page:2026&#45;se/index.html</text>
</g>
<!-- website&#45;&gt;page:2026&#45;se/index.html -->
<g id="edge41" class="edge">
<title>website&#45;&gt;page:2026&#45;se/index.html</title>
<path fill="none" stroke="black" d="M62.23,-501.79C125.35,-501.35 273.02,-500.32 370.53,-499.65"/>
<polygon fill="black" stroke="black" points="370.38,-503.15 380.35,-499.58 370.33,-496.15 370.38,-503.15"/>
</g>
<!-- page:coc -->
<g id="node22" class="node">
<title>page:coc</title>
<path fill="none" stroke="black" d="M487.88,-463C487.88,-463 441.12,-463 441.12,-463 435.12,-463 429.12,-457 429.12,-451 429.12,-451 429.12,-439 429.12,-439 429.12,-433 435.12,-427 441.12,-427 441.12,-427 487.88,-427 487.88,-427 493.88,-427 499.88,-433 499.88,-439 499.88,-439 499.88,-451 499.88,-451 499.88,-457 493.88,-463 487.88,-463"/>
<text text-anchor="middle" x="464.5" y="-439.2" font-family="Helvetica,sans-Serif" font-size="14.00">page:coc</text>
</g>
<!-- website&#45;&gt;page:coc -->
<g id="edge42" class="edge">
<title>website&#45;&gt;page:coc</title>
<path fill="none" stroke="black" d="M62.23,-497.99C136.69,-488.16 328.81,-462.79 417.44,-451.08"/>
<polygon fill="black" stroke="black" points="417.78,-454.57 427.24,-449.79 416.86,-447.63 417.78,-454.57"/>
</g>
<!-- page:topics -->
<g id="node23" class="node">
<title>page:topics</title>
<path fill="none" stroke="black" d="M495,-409C495,-409 434,-409 434,-409 428,-409 422,-403 422,-397 422,-397 422,-385 422,-385 422,-379 428,-373 434,-373 434,-373 495,-373 495,-373 501,-373 507,-379 507,-385 507,-385 507,-397 507,-397 507,-403 501,-409 495,-409"/>
<text text-anchor="middle" x="464.5" y="-385.2" font-family="Helvetica,sans-Serif" font-size="14.00">page:topics</text>
</g>
<!-- website&#45;&gt;page:topics -->
<g id="edge43" class="edge">
<title>website&#45;&gt;page:topics</title>
<path fill="none" stroke="black" d="M54.34,-483.63C66.51,-474.59 82.2,-464.3 97.75,-458 153.72,-435.32 323.24,-410 410.44,-398.02"/>
<polygon fill="black" stroke="black" points="410.74,-401.51 420.17,-396.69 409.79,-394.57 410.74,-401.51"/>
</g>
<!-- page:webring -->
<g id="node24" class="node">
<title>page:webring</title>
<path fill="none" stroke="black" d="M501,-355C501,-355 428,-355 428,-355 422,-355 416,-349 416,-343 416,-343 416,-331 416,-331 416,-325 422,-319 428,-319 428,-319 501,-319 501,-319 507,-319 513,-325 513,-331 513,-331 513,-343 513,-343 513,-349 507,-355 501,-355"/>
<text text-anchor="middle" x="464.5" y="-331.2" font-family="Helvetica,sans-Serif" font-size="14.00">page:webring</text>
</g>
<!-- website&#45;&gt;page:webring -->
<g id="edge44" class="edge">
<title>website&#45;&gt;page:webring</title>
<path fill="none" stroke="black" d="M38.68,-483.71C48.17,-460.96 67.69,-422.82 97.75,-404 192.28,-344.81 237.01,-391.51 346.25,-369 365.42,-365.05 386.1,-359.76 404.67,-354.62"/>
<polygon fill="black" stroke="black" points="405.49,-358.03 414.17,-351.95 403.6,-351.29 405.49,-358.03"/>
</g>
<!-- sitemap -->
<g id="node26" class="node">
<title>sitemap</title>
<path fill="none" stroke="black" d="M242,-604C242,-604 202,-604 202,-604 196,-604 190,-598 190,-592 190,-592 190,-580 190,-580 190,-574 196,-568 202,-568 202,-568 242,-568 242,-568 248,-568 254,-574 254,-580 254,-580 254,-592 254,-592 254,-598 248,-604 242,-604"/>
<text text-anchor="middle" x="222" y="-580.2" font-family="Helvetica,sans-Serif" font-size="14.00">sitemap</text>
</g>
<!-- website&#45;&gt;sitemap -->
<g id="edge45" class="edge">
<title>website&#45;&gt;sitemap</title>
<path fill="none" stroke="black" d="M50.59,-520.25C63.04,-531.47 80.26,-545.31 97.75,-554 123.13,-566.61 154,-574.62 178.49,-579.47"/>
<polygon fill="black" stroke="black" points="177.65,-582.87 188.12,-581.26 178.93,-575.99 177.65,-582.87"/>
</g>
<!-- webring -->
<g id="node27" class="node">
<title>webring</title>
<path fill="none" stroke="black" d="M484.12,-625C484.12,-625 444.88,-625 444.88,-625 438.88,-625 432.88,-619 432.88,-613 432.88,-613 432.88,-601 432.88,-601 432.88,-595 438.88,-589 444.88,-589 444.88,-589 484.12,-589 484.12,-589 490.12,-589 496.12,-595 496.12,-601 496.12,-601 496.12,-613 496.12,-613 496.12,-619 490.12,-625 484.12,-625"/>
<text text-anchor="middle" x="464.5" y="-601.2" font-family="Helvetica,sans-Serif" font-size="14.00">webring</text>
</g>
<!-- website&#45;&gt;webring -->
<g id="edge46" class="edge">
<title>website&#45;&gt;webring</title>
<path fill="none" stroke="black" d="M36.58,-520.26C44.37,-546.27 62.7,-593.04 97.75,-613 201.47,-672.06 350.03,-641.17 421.69,-620.57"/>
<polygon fill="black" stroke="black" points="422.46,-623.99 431.06,-617.79 420.48,-617.28 422.46,-623.99"/>
</g>
<!-- weeknotes_blogroll_feed -->
<g id="node28" class="node">
<title>weeknotes_blogroll_feed</title>
<path fill="none" stroke="black" d="M292.62,-880C292.62,-880 151.38,-880 151.38,-880 145.38,-880 139.38,-874 139.38,-868 139.38,-868 139.38,-856 139.38,-856 139.38,-850 145.38,-844 151.38,-844 151.38,-844 292.62,-844 292.62,-844 298.62,-844 304.62,-850 304.62,-856 304.62,-856 304.62,-868 304.62,-868 304.62,-874 298.62,-880 292.62,-880"/>
<text text-anchor="middle" x="222" y="-856.2" font-family="Helvetica,sans-Serif" font-size="14.00">weeknotes_blogroll_feed</text>
</g>
<!-- website&#45;&gt;weeknotes_blogroll_feed -->
<g id="edge47" class="edge">
<title>website&#45;&gt;weeknotes_blogroll_feed</title>
<path fill="none" stroke="black" d="M33.22,-520.14C38.09,-581.12 56.72,-777.46 97.75,-823 106.23,-832.41 116.97,-839.57 128.55,-845.01"/>
<polygon fill="black" stroke="black" points="126.94,-848.13 137.52,-848.78 129.65,-841.68 126.94,-848.13"/>
</g>
<!-- archive_index -->
<g id="node3" class="node">
<title>archive_index</title>
<path fill="none" stroke="black" d="M683.88,-711C683.88,-711 608.62,-711 608.62,-711 602.62,-711 596.62,-705 596.62,-699 596.62,-699 596.62,-687 596.62,-687 596.62,-681 602.62,-675 608.62,-675 608.62,-675 683.88,-675 683.88,-675 689.88,-675 695.88,-681 695.88,-687 695.88,-687 695.88,-699 695.88,-699 695.88,-705 689.88,-711 683.88,-711"/>
<text text-anchor="middle" x="646.25" y="-687.2" font-family="Helvetica,sans-Serif" font-size="14.00">archive_index</text>
</g>
<!-- archive&#45;&gt;archive_index -->
<g id="edge1" class="edge">
<title>archive&#45;&gt;archive_index</title>
<path fill="none" stroke="black" d="M494.38,-666.14C518.86,-670.5 554.78,-676.89 585.43,-682.35"/>
<polygon fill="black" stroke="black" points="584.5,-685.74 594.96,-684.05 585.73,-678.85 584.5,-685.74"/>
</g>
<!-- archive_year:2025 -->
<g id="node4" class="node">
<title>archive_year:2025</title>
<path fill="none" stroke="black" d="M697.75,-657C697.75,-657 594.75,-657 594.75,-657 588.75,-657 582.75,-651 582.75,-645 582.75,-645 582.75,-633 582.75,-633 582.75,-627 588.75,-621 594.75,-621 594.75,-621 697.75,-621 697.75,-621 703.75,-621 709.75,-627 709.75,-633 709.75,-633 709.75,-645 709.75,-645 709.75,-651 703.75,-657 697.75,-657"/>
<text text-anchor="middle" x="646.25" y="-633.2" font-family="Helvetica,sans-Serif" font-size="14.00">archive_year:2025</text>
</g>
<!-- archive&#45;&gt;archive_year:2025 -->
<g id="edge2" class="edge">
<title>archive&#45;&gt;archive_year:2025</title>
<path fill="none" stroke="black" d="M494.38,-657.47C515.13,-654.93 544.1,-651.38 571.11,-648.07"/>
<polygon fill="black" stroke="black" points="571.54,-651.55 581.04,-646.86 570.69,-644.6 571.54,-651.55"/>
</g>
<!-- archive_year:2026 -->
<g id="node5" class="node">
<title>archive_year:2026</title>
<path fill="none" stroke="black" d="M697.75,-603C697.75,-603 594.75,-603 594.75,-603 588.75,-603 582.75,-597 582.75,-591 582.75,-591 582.75,-579 582.75,-579 582.75,-573 588.75,-567 594.75,-567 594.75,-567 697.75,-567 697.75,-567 703.75,-567 709.75,-573 709.75,-579 709.75,-579 709.75,-591 709.75,-591 709.75,-597 703.75,-603 697.75,-603"/>
<text text-anchor="middle" x="646.25" y="-579.2" font-family="Helvetica,sans-Serif" font-size="14.00">archive_year:2026</text>
</g>
<!-- archive&#45;&gt;archive_year:2026 -->
<g id="edge3" class="edge">
<title>archive&#45;&gt;archive_year:2026</title>
<path fill="none" stroke="black" d="M494.69,-653.06C510.45,-648.34 530.03,-641.76 546.75,-634 563.76,-626.1 566.1,-620.63 582.75,-612 585.14,-610.76 587.6,-609.53 590.1,-608.31"/>
<polygon fill="black" stroke="black" points="591.58,-611.48 599.13,-604.06 588.6,-605.15 591.58,-611.48"/>
</g>
<!-- feeds -->
<g id="node17" class="node">
<title>feeds</title>
<path fill="none" stroke="black" d="M787.75,-776C787.75,-776 757.75,-776 757.75,-776 751.75,-776 745.75,-770 745.75,-764 745.75,-764 745.75,-752 745.75,-752 745.75,-746 751.75,-740 757.75,-740 757.75,-740 787.75,-740 787.75,-740 793.75,-740 799.75,-746 799.75,-752 799.75,-752 799.75,-764 799.75,-764 799.75,-770 793.75,-776 787.75,-776"/>
<text text-anchor="middle" x="772.75" y="-752.2" font-family="Helvetica,sans-Serif" font-size="14.00">feeds</text>
</g>
<!-- archive&#45;&gt;feeds -->
<g id="edge4" class="edge">
<title>archive&#45;&gt;feeds</title>
<path fill="none" stroke="black" d="M494.53,-667.57C510.6,-671.95 530.53,-678.63 546.75,-688 565.29,-698.71 563.59,-710.45 582.75,-720 608.84,-733.01 686.97,-745.91 734.21,-752.83"/>
<polygon fill="black" stroke="black" points="733.61,-756.28 744.01,-754.24 734.61,-749.35 733.61,-756.28"/>
</g>
<!-- archive_index&#45;&gt;feeds -->
<g id="edge5" class="edge">
<title>archive_index&#45;&gt;feeds</title>
<path fill="none" stroke="black" d="M683.32,-711.35C691.99,-715.79 701.21,-720.54 709.75,-725 718.13,-729.37 727.11,-734.12 735.57,-738.62"/>
<polygon fill="black" stroke="black" points="733.75,-741.61 744.22,-743.23 737.04,-735.43 733.75,-741.61"/>
</g>
<!-- archive_year:2025&#45;&gt;feeds -->
<g id="edge6" class="edge">
<title>archive_year:2025&#45;&gt;feeds</title>
<path fill="none" stroke="black" d="M697.25,-657.41C701.68,-659.97 705.93,-662.83 709.75,-666 730.73,-683.41 747.46,-709.7 758.23,-729.72"/>
<polygon fill="black" stroke="black" points="755.06,-731.2 762.76,-738.48 761.28,-727.99 755.06,-731.2"/>
</g>
<!-- archive_year:2026&#45;&gt;feeds -->
<g id="edge7" class="edge">
<title>archive_year:2026&#45;&gt;feeds</title>
<path fill="none" stroke="black" d="M699.14,-603.46C702.98,-605.98 706.58,-608.81 709.75,-612 742.08,-644.53 758.59,-696.53 766.17,-728.89"/>
<polygon fill="black" stroke="black" points="762.69,-729.36 768.25,-738.38 769.53,-727.86 762.69,-729.36"/>
</g>
<!-- blogroll_feed&#45;&gt;feeds -->
<g id="edge8" class="edge">
<title>blogroll_feed&#45;&gt;feeds</title>
<path fill="none" stroke="black" d="M268.99,-965.8C363.2,-987.01 580.14,-1020.28 709.75,-916 749.25,-884.22 763.66,-823.79 768.86,-787.58"/>
<polygon fill="black" stroke="black" points="772.32,-788.16 770.11,-777.8 765.37,-787.28 772.32,-788.16"/>
</g>
<!-- blogroll_feed&#45;&gt;members_dir -->
<g id="edge9" class="edge">
<title>blogroll_feed&#45;&gt;members_dir</title>
<path fill="none" stroke="black" d="M269.09,-946.53C307.69,-940.27 363.03,-931.29 404.8,-924.52"/>
<polygon fill="black" stroke="black" points="405.12,-928.01 414.43,-922.96 404,-921.1 405.12,-928.01"/>
</g>
<!-- events -->
<g id="node14" class="node">
<title>events</title>
<path fill="none" stroke="black" d="M662.12,-841C662.12,-841 630.38,-841 630.38,-841 624.38,-841 618.38,-835 618.38,-829 618.38,-829 618.38,-817 618.38,-817 618.38,-811 624.38,-805 630.38,-805 630.38,-805 662.12,-805 662.12,-805 668.12,-805 674.12,-811 674.12,-817 674.12,-817 674.12,-829 674.12,-829 674.12,-835 668.12,-841 662.12,-841"/>
<text text-anchor="middle" x="646.25" y="-817.2" font-family="Helvetica,sans-Serif" font-size="14.00">events</text>
</g>
<!-- events_calendar&#45;&gt;events -->
<g id="edge10" class="edge">
<title>events_calendar&#45;&gt;events</title>
<path fill="none" stroke="black" d="M522.37,-823C549.95,-823 582.34,-823 606.94,-823"/>
<polygon fill="black" stroke="black" points="606.83,-826.5 616.83,-823 606.83,-819.5 606.83,-826.5"/>
</g>
<!-- events_feed&#45;&gt;events -->
<g id="edge11" class="edge">
<title>events_feed&#45;&gt;events</title>
<path fill="none" stroke="black" d="M509.47,-782.21C539.38,-791.2 578.57,-802.97 607.15,-811.55"/>
<polygon fill="black" stroke="black" points="605.89,-814.83 616.48,-814.36 607.91,-808.13 605.89,-814.83"/>
</g>
<!-- parsed_opml -->
<g id="node25" class="node">
<title>parsed_opml</title>
<path fill="none" stroke="black" d="M918.5,-860C918.5,-860 847.75,-860 847.75,-860 841.75,-860 835.75,-854 835.75,-848 835.75,-848 835.75,-836 835.75,-836 835.75,-830 841.75,-824 847.75,-824 847.75,-824 918.5,-824 918.5,-824 924.5,-824 930.5,-830 930.5,-836 930.5,-836 930.5,-848 930.5,-848 930.5,-854 924.5,-860 918.5,-860"/>
<text text-anchor="middle" x="883.12" y="-836.2" font-family="Helvetica,sans-Serif" font-size="14.00">parsed_opml</text>
</g>
<!-- feeds&#45;&gt;parsed_opml -->
<g id="edge12" class="edge">
<title>feeds&#45;&gt;parsed_opml</title>
<path fill="none" stroke="black" d="M797.53,-776.43C812.78,-788.25 832.77,-803.75 849.49,-816.71"/>
<polygon fill="black" stroke="black" points="847.15,-819.32 857.2,-822.68 851.44,-813.79 847.15,-819.32"/>
</g>
<!-- homepage&#45;&gt;events -->
<g id="edge13" class="edge">
<title>homepage&#45;&gt;events</title>
<path fill="none" stroke="black" d="M505.02,-722.87C519.1,-726.98 534.49,-733.08 546.75,-742 568.6,-757.9 562.17,-773.48 582.75,-791 590.22,-797.36 599.18,-802.89 607.94,-807.47"/>
<polygon fill="black" stroke="black" points="606.16,-810.5 616.68,-811.75 609.24,-804.21 606.16,-810.5"/>
</g>
<!-- homepage&#45;&gt;feeds -->
<g id="edge14" class="edge">
<title>homepage&#45;&gt;feeds</title>
<path fill="none" stroke="black" d="M505.21,-728.17C537.62,-738.87 578.72,-752.31 582.75,-753 634.79,-761.93 696.05,-761.61 734.4,-760.14"/>
<polygon fill="black" stroke="black" points="734.18,-763.65 744.02,-759.72 733.88,-756.66 734.18,-763.65"/>
</g>
<!-- members_dir&#45;&gt;feeds -->
<g id="edge15" class="edge">
<title>members_dir&#45;&gt;feeds</title>
<path fill="none" stroke="black" d="M512.94,-921.18C565.92,-925.48 651.81,-924.39 709.75,-883 741.45,-860.35 757.79,-816.82 765.56,-787.59"/>
<polygon fill="black" stroke="black" points="768.96,-788.43 767.94,-777.88 762.16,-786.76 768.96,-788.43"/>
</g>
<!-- members_dir&#45;&gt;parsed_opml -->
<g id="edge16" class="edge">
<title>members_dir&#45;&gt;parsed_opml</title>
<path fill="none" stroke="black" d="M512.89,-920.9C562.52,-925.76 642.46,-929.83 709.75,-916 756.44,-906.4 806.08,-883.59 840.05,-865.81"/>
<polygon fill="black" stroke="black" points="841.55,-868.98 848.73,-861.19 838.25,-862.8 841.55,-868.98"/>
</g>
<!-- sitemap&#45;&gt;archive -->
<g id="edge17" class="edge">
<title>sitemap&#45;&gt;archive</title>
<path fill="none" stroke="black" d="M254.44,-595.8C297.82,-609.33 376.03,-633.72 423.52,-648.53"/>
<polygon fill="black" stroke="black" points="422.28,-651.81 432.87,-651.45 424.36,-645.13 422.28,-651.81"/>
</g>
<!-- sitemap&#45;&gt;homepage -->
<g id="edge18" class="edge">
<title>sitemap&#45;&gt;homepage</title>
<path fill="none" stroke="black" d="M247.52,-604.47C277.86,-626.65 331.73,-663.89 382.25,-688 392.01,-692.66 402.78,-696.85 413.2,-700.46"/>
<polygon fill="black" stroke="black" points="411.85,-703.7 422.44,-703.53 414.06,-697.06 411.85,-703.7"/>
</g>
<!-- sitemap&#45;&gt;members_dir -->
<g id="edge19" class="edge">
<title>sitemap&#45;&gt;members_dir</title>
<path fill="none" stroke="black" d="M231.29,-604.42C252.18,-649.57 310.47,-768.07 382.25,-850 395.26,-864.85 411.98,-878.87 426.86,-890.06"/>
<polygon fill="black" stroke="black" points="424.48,-892.66 434.62,-895.75 428.62,-887.02 424.48,-892.66"/>
</g>
<!-- sitemap&#45;&gt;newsletter -->
<g id="edge20" class="edge">
<title>sitemap&#45;&gt;newsletter</title>
<path fill="none" stroke="black" d="M254.44,-581.69C295.02,-576.12 366.09,-566.37 413.97,-559.8"/>
<polygon fill="black" stroke="black" points="414.37,-563.27 423.81,-558.45 413.42,-556.34 414.37,-563.27"/>
</g>
<!-- sitemap&#45;&gt;page:2026&#45;se/index.html -->
<g id="edge21" class="edge">
<title>sitemap&#45;&gt;page:2026&#45;se/index.html</title>
<path fill="none" stroke="black" d="M254.29,-573.79C286.31,-561.4 337.55,-541.84 382.25,-526 386.87,-524.36 391.64,-522.7 396.46,-521.05"/>
<polygon fill="black" stroke="black" points="397.25,-524.48 405.58,-517.94 394.99,-517.85 397.25,-524.48"/>
</g>
<!-- sitemap&#45;&gt;page:coc -->
<g id="edge22" class="edge">
<title>sitemap&#45;&gt;page:coc</title>
<path fill="none" stroke="black" d="M244.31,-567.52C273.65,-542.86 328.92,-499.16 382.25,-472 393.51,-466.27 406.24,-461.36 418.24,-457.37"/>
<polygon fill="black" stroke="black" points="419.06,-460.78 427.54,-454.42 416.95,-454.11 419.06,-460.78"/>
</g>
<!-- sitemap&#45;&gt;page:topics -->
<g id="edge23" class="edge">
<title>sitemap&#45;&gt;page:topics</title>
<path fill="none" stroke="black" d="M235.68,-567.51C260.12,-533.2 317.14,-459.41 382.25,-418 391,-412.43 401.02,-407.9 410.96,-404.24"/>
<polygon fill="black" stroke="black" points="411.87,-407.63 420.22,-401.1 409.62,-401 411.87,-407.63"/>
</g>
<!-- sitemap&#45;&gt;page:webring -->
<g id="edge24" class="edge">
<title>sitemap&#45;&gt;page:webring</title>
<path fill="none" stroke="black" d="M235.11,-567.78C268.78,-517.36 362.29,-378.69 382.25,-364 389.07,-358.98 396.89,-354.85 404.92,-351.47"/>
<polygon fill="black" stroke="black" points="406,-354.8 414.11,-347.98 403.51,-348.26 406,-354.8"/>
</g>
<!-- sitemap&#45;&gt;webring -->
<g id="edge25" class="edge">
<title>sitemap&#45;&gt;webring</title>
<path fill="none" stroke="black" d="M254.44,-588.75C297.14,-592.47 373.59,-599.15 421.26,-603.31"/>
<polygon fill="black" stroke="black" points="420.66,-606.77 430.92,-604.16 421.27,-599.8 420.66,-606.77"/>
</g>
<!-- webring&#45;&gt;feeds -->
<g id="edge26" class="edge">
<title>webring&#45;&gt;feeds</title>
<path fill="none" stroke="black" d="M496.62,-598.48C512.02,-593.81 530.71,-587.45 546.75,-580 563.76,-572.1 564.7,-563.08 582.75,-558 637.08,-542.71 664.31,-524.51 709.75,-558 763.36,-597.51 771.99,-682.9 772.57,-728.26"/>
<polygon fill="black" stroke="black" points="769.07,-728.15 772.55,-738.15 776.07,-728.16 769.07,-728.15"/>
</g>
<!-- weeknotes_blogroll_feed&#45;&gt;feeds -->
<g id="edge48" class="edge">
<title>weeknotes_blogroll_feed&#45;&gt;feeds</title>
<path fill="none" stroke="black" d="M305.09,-868.87C425.33,-877.46 642.38,-886.91 709.75,-850 734.35,-836.52 751.02,-808.61 760.83,-787.05"/>
<polygon fill="black" stroke="black" points="764.05,-788.42 764.74,-777.85 757.61,-785.68 764.05,-788.42"/>
</g>
<!-- weeknotes_blogroll_feed&#45;&gt;members_dir -->
<g id="edge49" class="edge">
<title>weeknotes_blogroll_feed&#45;&gt;members_dir</title>
<path fill="none" stroke="black" d="M305.09,-880.09C337.91,-887.32 374.96,-895.49 404.98,-902.1"/>
<polygon fill="black" stroke="black" points="404.11,-905.5 414.63,-904.23 405.62,-898.66 404.11,-905.5"/>
</g>
</g>
</svg>
