<?xml version="1.0" encoding="UTF-8" standalone="no"?>
<!DOCTYPE svg PUBLIC "-//W3C//DTD SVG 1.1//EN"
 "http://www.w3.org/Graphics/SVG/1.1/DTD/svg11.dtd">
<!-- Generated by graphviz version 12.2.1 (0)
 -->
<!-- Title: build_dependencies Pages: 1 -->
<svg width="1003pt" height="876pt"
 viewBox="0.00 0.00 1003.25 876.00" xmlns="http://www.w3.org/2000/svg" xmlns:xlink="http://www.w3.org/1999/xlink">
<g id="graph0" class="graph" transform="scale(1 1) rotate(0) translate(4 872)">
<title>build_dependencies</title>
<polygon fill="white" stroke="none" points="-4,4 -4,-872 999.25,-872 999.25,4 -4,4"/>
<!-- website -->
<g id="node1" class="node">
<title>website</title>
<path fill="none" stroke="black" d="M49.75,-444C49.75,-444 12,-444 12,-444 6,-444 0,-438 0,-432 0,-432 0,-420 0,-420 0,-414 6,-408 12,-408 12,-408 49.75,-408 49.75,-408 55.75,-408 61.75,-414 61.75,-420 61.75,-420 61.75,-432 61.75,-432 61.75,-438 55.75,-444 49.75,-444"/>
<text text-anchor="middle" x="30.88" y="-420.2" font-family="Helvetica,sans-Serif" font-size="14.00">website</text>
</g>
<!-- copy_assets:CNAME -->
<g id="node2" class="node">
<title>copy_assets:CNAME</title>
<path fill="none" stroke="black" d="M303.5,-868C303.5,-868 183.25,-868 183.25,-868 177.25,-868 171.25,-862 171.25,-856 171.25,-856 171.25,-844 171.25,-844 171.25,-838 177.25,-832 183.25,-832 183.25,-832 303.5,-832 303.5,-832 309.5,-832 315.5,-838 315.5,-844 315.5,-844 315.5,-856 315.5,-856 315.5,-862 309.5,-868 303.5,-868"/>
<text text-anchor="middle" x="243.38" y="-844.2" font-family="Helvetica,sans-Serif" font-size="14.00">copy_assets:CNAME</text>
</g>
<!-- website&#45;&gt;copy_assets:CNAME -->
<g id="edge13" class="edge">
<title>website&#45;&gt;copy_assets:CNAME</title>
<path fill="none" stroke="black" d="M32.23,-444.09C33.97,-514.37 43.96,-768.11 97.75,-823 114.04,-839.62 137.04,-847.83 159.93,-851.51"/>
<polygon fill="black" stroke="black" points="159.25,-854.95 169.62,-852.77 160.16,-848.01 159.25,-854.95"/>
</g>
<!-- copy_assets:assets/favicon.svg -->
<g id="node3" class="node">
<title>copy_assets:assets/favicon.svg</title>
<path fill="none" stroke="black" d="M333.88,-814C333.88,-814 152.88,-814 152.88,-814 146.88,-814 140.88,-808 140.88,-802 140.88,-802 140.88,-790 140.88,-790 140.88,-784 146.88,-778 152.88,-778 152.88,-778 333.88,-778 333.88,-778 339.88,-778 345.88,-784 345.88,-790 345.88,-790 345.88,-802 345.88,-802 345.88,-808 339.88,-814 333.88,-814"/>
<text text-anchor="middle" x="243.38" y="-790.2" font-family="Helvetica,sans-Serif" font-size="14.00">copy_assets:assets/favicon.svg</text>
</g>
<!-- website&#45;&gt;copy_assets:assets/favicon.svg -->
<g id="edge14" class="edge">
<title>website&#45;&gt;copy_assets:assets/favicon.svg</title>
<path fill="none" stroke="black" d="M32.75,-444.23C36.21,-508.41 51.11,-722.6 97.75,-769 106.85,-778.06 117.96,-784.6 129.93,-789.26"/>
<polygon fill="black" stroke="black" points="128.61,-792.51 139.21,-792.41 130.86,-785.88 128.61,-792.51"/>
</g>
<!-- copy_assets:assets/indiewebcamp&#45;button.svg -->
<g id="node4" class="node">
<title>copy_assets:assets/indiewebcamp&#45;button.svg</title>
<path fill="none" stroke="black" d="M377,-760C377,-760 109.75,-760 109.75,-760 103.75,-760 97.75,-754 97.75,-748 97.75,-748 97.75,-736 97.75,-736 97.75,-730 103.75,-724 109.75,-724 109.75,-724 377,-724 377,-724 383,-724 389,-730 389,-736 389,-736 389,-748 389,-748 389,-754 383,-760 377,-760"/>
<text text-anchor="middle" x="243.38" y="-736.2" font-family="Helvetica,sans-Serif" font-size="14.00">copy_assets:assets/indiewebcamp&#45;button.svg</text>
</g>
<!-- website&#45;&gt;copy_assets:assets/indiewebcamp&#45;button.svg -->
<g id="edge15" class="edge">
<title>website&#45;&gt;copy_assets:assets/indiewebcamp&#45;button.svg</title>
<path fill="none" stroke="black" d="M33.44,-444.1C38.78,-501.35 58.15,-676.93 97.75,-715 98.37,-715.6 99,-716.18 99.64,-716.76"/>
<polygon fill="black" stroke="black" points="97.18,-719.27 107.2,-722.71 101.51,-713.77 97.18,-719.27"/>
</g>
<!-- copy_assets:assets/preview.png -->
<g id="node5" class="node">
<title>copy_assets:assets/preview.png</title>
<path fill="none" stroke="black" d="M336.5,-706C336.5,-706 150.25,-706 150.25,-706 144.25,-706 138.25,-700 138.25,-694 138.25,-694 138.25,-682 138.25,-682 138.25,-676 144.25,-670 150.25,-670 150.25,-670 336.5,-670 336.5,-670 342.5,-670 348.5,-676 348.5,-682 348.5,-682 348.5,-694 348.5,-694 348.5,-700 342.5,-706 336.5,-706"/>
<text text-anchor="middle" x="243.38" y="-682.2" font-family="Helvetica,sans-Serif" font-size="14.00">copy_assets:assets/preview.png</text>
</g>
<!-- website&#45;&gt;copy_assets:assets/preview.png -->
<g id="edge16" class="edge">
<title>website&#45;&gt;copy_assets:assets/preview.png</title>
<path fill="none" stroke="black" d="M31.02,-444.25C30.03,-488.63 34.14,-602.79 97.75,-661 106.39,-668.91 116.57,-674.84 127.47,-679.27"/>
<polygon fill="black" stroke="black" points="126.09,-682.49 136.69,-682.55 128.44,-675.9 126.09,-682.49"/>
</g>
<!-- copy_assets:assets/style.css -->
<g id="node6" class="node">
<title>copy_assets:assets/style.css</title>
<path fill="none" stroke="black" d="M326,-652C326,-652 160.75,-652 160.75,-652 154.75,-652 148.75,-646 148.75,-640 148.75,-640 148.75,-628 148.75,-628 148.75,-622 154.75,-616 160.75,-616 160.75,-616 326,-616 326,-616 332,-616 338,-622 338,-628 338,-628 338,-640 338,-640 338,-646 332,-652 326,-652"/>
<text text-anchor="middle" x="243.38" y="-628.2" font-family="Helvetica,sans-Serif" font-size="14.00">copy_assets:assets/style.css</text>
</g>
<!-- website&#45;&gt;copy_assets:assets/style.css -->
<g id="edge17" class="edge">
<title>website&#45;&gt;copy_assets:assets/style.css</title>
<path fill="none" stroke="black" d="M32.82,-444.47C35.76,-481.46 47.88,-564.73 97.75,-607 109.27,-616.77 123.19,-623.46 137.78,-627.99"/>
<polygon fill="black" stroke="black" points="136.47,-631.26 147.04,-630.51 138.31,-624.5 136.47,-631.26"/>
</g>
<!-- copy_opml -->
<g id="node7" class="node">
<title>copy_opml</title>
<path fill="none" stroke="black" d="M272.38,-598C272.38,-598 214.38,-598 214.38,-598 208.38,-598 202.38,-592 202.38,-586 202.38,-586 202.38,-574 202.38,-574 202.38,-568 208.38,-562 214.38,-562 214.38,-562 272.38,-562 272.38,-562 278.38,-562 284.38,-568 284.38,-574 284.38,-574 284.38,-586 284.38,-586 284.38,-592 278.38,-598 272.38,-598"/>
<text text-anchor="middle" x="243.38" y="-574.2" font-family="Helvetica,sans-Serif" font-size="14.00">copy_opml</text>
</g>
<!-- website&#45;&gt;copy_opml -->
<g id="edge18" class="edge">
<title>website&#45;&gt;copy_opml</title>
<path fill="none" stroke="black" d="M35.99,-444.48C43.27,-472.65 61.25,-525.91 97.75,-553 124.28,-572.69 160.91,-579.37 190.68,-581.17"/>
<polygon fill="black" stroke="black" points="190.47,-584.66 200.61,-581.58 190.77,-577.67 190.47,-584.66"/>
</g>
<!-- generate_blogroll -->
<g id="node10" class="node">
<title>generate_blogroll</title>
<path fill="none" stroke="black" d="M291.5,-544C291.5,-544 195.25,-544 195.25,-544 189.25,-544 183.25,-538 183.25,-532 183.25,-532 183.25,-520 183.25,-520 183.25,-514 189.25,-508 195.25,-508 195.25,-508 291.5,-508 291.5,-508 297.5,-508 303.5,-514 303.5,-520 303.5,-520 303.5,-532 303.5,-532 303.5,-538 297.5,-544 291.5,-544"/>
<text text-anchor="middle" x="243.38" y="-520.2" font-family="Helvetica,sans-Serif" font-size="14.00">generate_blogroll</text>
</g>
<!-- website&#45;&gt;generate_blogroll -->
<g id="edge19" class="edge">
<title>website&#45;&gt;generate_blogroll</title>
<path fill="none" stroke="black" d="M43.32,-444.43C54.89,-461.41 74.37,-485.9 97.75,-499 120.07,-511.5 147.06,-518.36 171.66,-522.06"/>
<polygon fill="black" stroke="black" points="170.88,-525.49 181.26,-523.36 171.82,-518.55 170.88,-525.49"/>
</g>
<!-- generate_events_calendar -->
<g id="node11" class="node">
<title>generate_events_calendar</title>
<path fill="none" stroke="black" d="M319.25,-252C319.25,-252 167.5,-252 167.5,-252 161.5,-252 155.5,-246 155.5,-240 155.5,-240 155.5,-228 155.5,-228 155.5,-222 161.5,-216 167.5,-216 167.5,-216 319.25,-216 319.25,-216 325.25,-216 331.25,-222 331.25,-228 331.25,-228 331.25,-240 331.25,-240 331.25,-246 325.25,-252 319.25,-252"/>
<text text-anchor="middle" x="243.38" y="-228.2" font-family="Helvetica,sans-Serif" font-size="14.00">generate_events_calendar</text>
</g>
<!-- website&#45;&gt;generate_events_calendar -->
<g id="edge20" class="edge">
<title>website&#45;&gt;generate_events_calendar</title>
<path fill="none" stroke="black" d="M33.56,-407.54C37.74,-373 51.87,-298.69 97.75,-261 111.03,-250.09 127.31,-243.05 144.1,-238.6"/>
<polygon fill="black" stroke="black" points="144.76,-242.04 153.71,-236.38 143.18,-235.22 144.76,-242.04"/>
</g>
<!-- generate_events_feed -->
<g id="node12" class="node">
<title>generate_events_feed</title>
<path fill="none" stroke="black" d="M306.5,-306C306.5,-306 180.25,-306 180.25,-306 174.25,-306 168.25,-300 168.25,-294 168.25,-294 168.25,-282 168.25,-282 168.25,-276 174.25,-270 180.25,-270 180.25,-270 306.5,-270 306.5,-270 312.5,-270 318.5,-276 318.5,-282 318.5,-282 318.5,-294 318.5,-294 318.5,-300 312.5,-306 306.5,-306"/>
<text text-anchor="middle" x="243.38" y="-282.2" font-family="Helvetica,sans-Serif" font-size="14.00">generate_events_feed</text>
</g>
<!-- website&#45;&gt;generate_events_feed -->
<g id="edge21" class="edge">
<title>website&#45;&gt;generate_events_feed</title>
<path fill="none" stroke="black" d="M37.39,-407.73C45.98,-382.59 65.05,-337.85 97.75,-315 114.97,-302.97 136.04,-295.88 156.72,-291.8"/>
<polygon fill="black" stroke="black" points="157.06,-295.3 166.32,-290.14 155.87,-288.4 157.06,-295.3"/>
</g>
<!-- generate_homepage -->
<g id="node13" class="node">
<title>generate_homepage</title>
<path fill="none" stroke="black" d="M302,-360C302,-360 184.75,-360 184.75,-360 178.75,-360 172.75,-354 172.75,-348 172.75,-348 172.75,-336 172.75,-336 172.75,-330 178.75,-324 184.75,-324 184.75,-324 302,-324 302,-324 308,-324 314,-330 314,-336 314,-336 314,-348 314,-348 314,-354 308,-360 302,-360"/>
<text text-anchor="middle" x="243.38" y="-336.2" font-family="Helvetica,sans-Serif" font-size="14.00">generate_homepage</text>
</g>
<!-- website&#45;&gt;generate_homepage -->
<g id="edge22" class="edge">
<title>website&#45;&gt;generate_homepage</title>
<path fill="none" stroke="black" d="M50.48,-407.53C62.89,-396.22 80.11,-382.37 97.75,-374 117.53,-364.61 140.16,-357.93 161.55,-353.19"/>
<polygon fill="black" stroke="black" points="162.04,-356.66 171.11,-351.2 160.61,-349.81 162.04,-356.66"/>
</g>
<!-- generate_members -->
<g id="node14" class="node">
<title>generate_members</title>
<path fill="none" stroke="black" d="M547.5,-460C547.5,-460 437,-460 437,-460 431,-460 425,-454 425,-448 425,-448 425,-436 425,-436 425,-430 431,-424 437,-424 437,-424 547.5,-424 547.5,-424 553.5,-424 559.5,-430 559.5,-436 559.5,-436 559.5,-448 559.5,-448 559.5,-454 553.5,-460 547.5,-460"/>
<text text-anchor="middle" x="492.25" y="-436.2" font-family="Helvetica,sans-Serif" font-size="14.00">generate_members</text>
</g>
<!-- website&#45;&gt;generate_members -->
<g id="edge23" class="edge">
<title>website&#45;&gt;generate_members</title>
<path fill="none" stroke="black" d="M62.02,-427.05C132.53,-429.51 310.07,-435.69 413.39,-439.29"/>
<polygon fill="black" stroke="black" points="413.05,-442.78 423.17,-439.63 413.3,-435.78 413.05,-442.78"/>
</g>
<!-- generate_newsletter_subscribe_page -->
<g id="node15" class="node">
<title>generate_newsletter_subscribe_page</title>
<path fill="none" stroke="black" d="M351.88,-198C351.88,-198 134.88,-198 134.88,-198 128.88,-198 122.88,-192 122.88,-186 122.88,-186 122.88,-174 122.88,-174 122.88,-168 128.88,-162 134.88,-162 134.88,-162 351.88,-162 351.88,-162 357.88,-162 363.88,-168 363.88,-174 363.88,-174 363.88,-186 363.88,-186 363.88,-192 357.88,-198 351.88,-198"/>
<text text-anchor="middle" x="243.38" y="-174.2" font-family="Helvetica,sans-Serif" font-size="14.00">generate_newsletter_subscribe_page</text>
</g>
<!-- website&#45;&gt;generate_newsletter_subscribe_page -->
<g id="edge24" class="edge">
<title>website&#45;&gt;generate_newsletter_subscribe_page</title>
<path fill="none" stroke="black" d="M31.47,-407.72C31.59,-365.44 38.22,-260.45 97.75,-207 102.32,-202.89 107.31,-199.32 112.61,-196.22"/>
<polygon fill="black" stroke="black" points="113.82,-199.53 121.08,-191.82 110.59,-193.32 113.82,-199.53"/>
</g>
<!-- generate_webring -->
<g id="node16" class="node">
<title>generate_webring</title>
<path fill="none" stroke="black" d="M542.25,-406C542.25,-406 442.25,-406 442.25,-406 436.25,-406 430.25,-400 430.25,-394 430.25,-394 430.25,-382 430.25,-382 430.25,-376 436.25,-370 442.25,-370 442.25,-370 542.25,-370 542.25,-370 548.25,-370 554.25,-376 554.25,-382 554.25,-382 554.25,-394 554.25,-394 554.25,-400 548.25,-406 542.25,-406"/>
<text text-anchor="middle" x="492.25" y="-382.2" font-family="Helvetica,sans-Serif" font-size="14.00">generate_webring</text>
</g>
<!-- website&#45;&gt;generate_webring -->
<g id="edge25" class="edge">
<title>website&#45;&gt;generate_webring</title>
<path fill="none" stroke="black" d="M62.02,-423.51C133.78,-417.57 316.4,-402.46 418.81,-393.99"/>
<polygon fill="black" stroke="black" points="418.8,-397.51 428.47,-393.19 418.22,-390.53 418.8,-397.51"/>
</g>
<!-- generate_weeknotes_blogroll -->
<g id="node17" class="node">
<title>generate_weeknotes_blogroll</title>
<path fill="none" stroke="black" d="M327.5,-490C327.5,-490 159.25,-490 159.25,-490 153.25,-490 147.25,-484 147.25,-478 147.25,-478 147.25,-466 147.25,-466 147.25,-460 153.25,-454 159.25,-454 159.25,-454 327.5,-454 327.5,-454 333.5,-454 339.5,-460 339.5,-466 339.5,-466 339.5,-478 339.5,-478 339.5,-484 333.5,-490 327.5,-490"/>
<text text-anchor="middle" x="243.38" y="-466.2" font-family="Helvetica,sans-Serif" font-size="14.00">generate_weeknotes_blogroll</text>
</g>
<!-- website&#45;&gt;generate_weeknotes_blogroll -->
<g id="edge26" class="edge">
<title>website&#45;&gt;generate_weeknotes_blogroll</title>
<path fill="none" stroke="black" d="M62.03,-432.59C84.41,-437.48 116.23,-444.43 146.93,-451.14"/>
<polygon fill="black" stroke="black" points="146.18,-454.56 156.7,-453.28 147.67,-447.72 146.18,-454.56"/>
</g>
<!-- render_page:coc -->
<g id="node20" class="node">
<title>render_page:coc</title>
<path fill="none" stroke="black" d="M290,-144C290,-144 196.75,-144 196.75,-144 190.75,-144 184.75,-138 184.75,-132 184.75,-132 184.75,-120 184.75,-120 184.75,-114 190.75,-108 196.75,-108 196.75,-108 290,-108 290,-108 296,-108 302,-114 302,-120 302,-120 302,-132 302,-132 302,-138 296,-144 290,-144"/>
<text text-anchor="middle" x="243.38" y="-120.2" font-family="Helvetica,sans-Serif" font-size="14.00">render_page:coc</text>
</g>
<!-- website&#45;&gt;render_page:coc -->
<g id="edge27" class="edge">
<title>website&#45;&gt;render_page:coc</title>
<path fill="none" stroke="black" d="M33.72,-407.73C39.69,-352.45 60.26,-188.58 97.75,-153 117.69,-134.08 146.42,-126.29 173.04,-123.62"/>
<polygon fill="black" stroke="black" points="173.06,-127.13 182.77,-122.89 172.54,-120.15 173.06,-127.13"/>
</g>
<!-- render_page:topics -->
<g id="node21" class="node">
<title>render_page:topics</title>
<path fill="none" stroke="black" d="M297.12,-90C297.12,-90 189.62,-90 189.62,-90 183.62,-90 177.62,-84 177.62,-78 177.62,-78 177.62,-66 177.62,-66 177.62,-60 183.62,-54 189.62,-54 189.62,-54 297.12,-54 297.12,-54 303.12,-54 309.12,-60 309.12,-66 309.12,-66 309.12,-78 309.12,-78 309.12,-84 303.12,-90 297.12,-90"/>
<text text-anchor="middle" x="243.38" y="-66.2" font-family="Helvetica,sans-Serif" font-size="14.00">render_page:topics</text>
</g>
<!-- website&#45;&gt;render_page:topics -->
<g id="edge28" class="edge">
<title>website&#45;&gt;render_page:topics</title>
<path fill="none" stroke="black" d="M32.94,-407.76C36.93,-345.52 53.21,-142.91 97.75,-99 115.73,-81.27 141.39,-73.21 166.12,-69.99"/>
<polygon fill="black" stroke="black" points="166.29,-73.49 175.88,-68.99 165.58,-66.53 166.29,-73.49"/>
</g>
<!-- render_page:webring -->
<g id="node22" class="node">
<title>render_page:webring</title>
<path fill="none" stroke="black" d="M303.12,-36C303.12,-36 183.62,-36 183.62,-36 177.62,-36 171.62,-30 171.62,-24 171.62,-24 171.62,-12 171.62,-12 171.62,-6 177.62,0 183.62,0 183.62,0 303.12,0 303.12,0 309.12,0 315.12,-6 315.12,-12 315.12,-12 315.12,-24 315.12,-24 315.12,-30 309.12,-36 303.12,-36"/>
<text text-anchor="middle" x="243.38" y="-12.2" font-family="Helvetica,sans-Serif" font-size="14.00">render_page:webring</text>
</g>
<!-- website&#45;&gt;render_page:webring -->
<g id="edge29" class="edge">
<title>website&#45;&gt;render_page:webring</title>
<path fill="none" stroke="black" d="M32.37,-407.7C34.62,-338.95 46.12,-97.32 97.75,-45 114.09,-28.44 137.12,-20.24 160,-16.56"/>
<polygon fill="black" stroke="black" points="160.23,-20.06 169.69,-15.29 159.32,-13.12 160.23,-20.06"/>
</g>
<!-- fetch_events -->
<g id="node8" class="node">
<title>fetch_events</title>
<path fill="none" stroke="black" d="M526.5,-306C526.5,-306 458,-306 458,-306 452,-306 446,-300 446,-294 446,-294 446,-282 446,-282 446,-276 452,-270 458,-270 458,-270 526.5,-270 526.5,-270 532.5,-270 538.5,-276 538.5,-282 538.5,-282 538.5,-294 538.5,-294 538.5,-300 532.5,-306 526.5,-306"/>
<text text-anchor="middle" x="492.25" y="-282.2" font-family="Helvetica,sans-Serif" font-size="14.00">fetch_events</text>
</g>
<!-- fetch_feeds -->
<g id="node9" class="node">
<title>fetch_feeds</title>
<path fill="none" stroke="black" d="M860,-483C860,-483 798.25,-483 798.25,-483 792.25,-483 786.25,-477 786.25,-471 786.25,-471 786.25,-459 786.25,-459 786.25,-453 792.25,-447 798.25,-447 798.25,-447 860,-447 860,-447 866,-447 872,-453 872,-459 872,-459 872,-471 872,-471 872,-477 866,-483 860,-483"/>
<text text-anchor="middle" x="829.12" y="-459.2" font-family="Helvetica,sans-Serif" font-size="14.00">fetch_feeds</text>
</g>
<!-- parse_opml -->
<g id="node19" class="node">
<title>parse_opml</title>
<path fill="none" stroke="black" d="M983.25,-483C983.25,-483 920,-483 920,-483 914,-483 908,-477 908,-471 908,-471 908,-459 908,-459 908,-453 914,-447 920,-447 920,-447 983.25,-447 983.25,-447 989.25,-447 995.25,-453 995.25,-459 995.25,-459 995.25,-471 995.25,-471 995.25,-477 989.25,-483 983.25,-483"/>
<text text-anchor="middle" x="951.62" y="-459.2" font-family="Helvetica,sans-Serif" font-size="14.00">parse_opml</text>
</g>
<!-- fetch_feeds&#45;&gt;parse_opml -->
<g id="edge1" class="edge">
<title>fetch_feeds&#45;&gt;parse_opml</title>
<path fill="none" stroke="black" d="M872.27,-465C880.11,-465 888.41,-465 896.55,-465"/>
<polygon fill="black" stroke="black" points="896.38,-468.5 906.38,-465 896.38,-461.5 896.38,-468.5"/>
</g>
<!-- generate_blogroll&#45;&gt;fetch_feeds -->
<g id="edge2" class="edge">
<title>generate_blogroll&#45;&gt;fetch_feeds</title>
<path fill="none" stroke="black" d="M303.93,-524.07C398.88,-520.33 590.19,-510.01 750.25,-484 758.28,-482.7 766.7,-481 774.91,-479.15"/>
<polygon fill="black" stroke="black" points="775.52,-482.6 784.46,-476.91 773.93,-475.79 775.52,-482.6"/>
</g>
<!-- generate_blogroll&#45;&gt;generate_members -->
<g id="edge3" class="edge">
<title>generate_blogroll&#45;&gt;generate_members</title>
<path fill="none" stroke="black" d="M303.93,-519.31C330.49,-515.21 361.85,-508.8 389,-499 411.85,-490.75 435.65,-477.78 454.53,-466.29"/>
<polygon fill="black" stroke="black" points="456.27,-469.33 462.92,-461.08 452.58,-463.39 456.27,-469.33"/>
</g>
<!-- generate_events_calendar&#45;&gt;fetch_events -->
<g id="edge4" class="edge">
<title>generate_events_calendar&#45;&gt;fetch_events</title>
<path fill="none" stroke="black" d="M331.39,-249.17C350.43,-252.79 370.44,-256.82 389,-261 403.84,-264.34 419.79,-268.35 434.58,-272.24"/>
<polygon fill="black" stroke="black" points="433.59,-275.6 444.15,-274.79 435.39,-268.84 433.59,-275.6"/>
</g>
<!-- generate_events_feed&#45;&gt;fetch_events -->
<g id="edge5" class="edge">
<title>generate_events_feed&#45;&gt;fetch_events</title>
<path fill="none" stroke="black" d="M318.78,-288C355.9,-288 400.08,-288 434.43,-288"/>
<polygon fill="black" stroke="black" points="434.17,-291.5 444.17,-288 434.17,-284.5 434.17,-291.5"/>
</g>
<!-- generate_homepage&#45;&gt;fetch_events -->
<g id="edge6" class="edge">
<title>generate_homepage&#45;&gt;fetch_events</title>
<path fill="none" stroke="black" d="M314.47,-329.99C338.21,-325.63 364.83,-320.44 389,-315 403.84,-311.66 419.79,-307.65 434.58,-303.76"/>
<polygon fill="black" stroke="black" points="435.39,-307.16 444.15,-301.21 433.59,-300.4 435.39,-307.16"/>
</g>
<!-- generate_homepage&#45;&gt;fetch_feeds -->
<g id="edge7" class="edge">
<title>generate_homepage&#45;&gt;fetch_feeds</title>
<path fill="none" stroke="black" d="M314.42,-340.13C415.28,-340.03 605.23,-349.66 750.25,-415 765.46,-421.85 781.13,-431.37 794.4,-440.26"/>
<polygon fill="black" stroke="black" points="792.12,-442.94 802.35,-445.72 796.09,-437.17 792.12,-442.94"/>
</g>
<!-- get_feeds_with_entries -->
<g id="node18" class="node">
<title>get_feeds_with_entries</title>
<path fill="none" stroke="black" d="M738.25,-460C738.25,-460 607.5,-460 607.5,-460 601.5,-460 595.5,-454 595.5,-448 595.5,-448 595.5,-436 595.5,-436 595.5,-430 601.5,-424 607.5,-424 607.5,-424 738.25,-424 738.25,-424 744.25,-424 750.25,-430 750.25,-436 750.25,-436 750.25,-448 750.25,-448 750.25,-454 744.25,-460 738.25,-460"/>
<text text-anchor="middle" x="672.88" y="-436.2" font-family="Helvetica,sans-Serif" font-size="14.00">get_feeds_with_entries</text>
</g>
<!-- generate_members&#45;&gt;get_feeds_with_entries -->
<g id="edge8" class="edge">
<title>generate_members&#45;&gt;get_feeds_with_entries</title>
<path fill="none" stroke="black" d="M559.76,-442C567.58,-442 575.65,-442 583.71,-442"/>
<polygon fill="black" stroke="black" points="583.56,-445.5 593.56,-442 583.56,-438.5 583.56,-445.5"/>
</g>
<!-- generate_webring&#45;&gt;get_feeds_with_entries -->
<g id="edge9" class="edge">
<title>generate_webring&#45;&gt;get_feeds_with_entries</title>
<path fill="none" stroke="black" d="M554.22,-406.43C568.94,-410.88 584.81,-415.68 599.98,-420.26"/>
<polygon fill="black" stroke="black" points="598.84,-423.58 609.42,-423.12 600.87,-416.88 598.84,-423.58"/>
</g>
<!-- generate_weeknotes_blogroll&#45;&gt;fetch_feeds -->
<g id="edge10" class="edge">
<title>generate_weeknotes_blogroll&#45;&gt;fetch_feeds</title>
<path fill="none" stroke="black" d="M339.97,-472.72C441.7,-473.19 607.37,-473.09 750.25,-469 758.16,-468.77 766.52,-468.44 774.71,-468.07"/>
<polygon fill="black" stroke="black" points="774.78,-471.57 784.59,-467.58 774.44,-464.57 774.78,-471.57"/>
</g>
<!-- generate_weeknotes_blogroll&#45;&gt;generate_members -->
<g id="edge11" class="edge">
<title>generate_weeknotes_blogroll&#45;&gt;generate_members</title>
<path fill="none" stroke="black" d="M339.82,-460.4C364.19,-457.44 390.1,-454.29 413.47,-451.45"/>
<polygon fill="black" stroke="black" points="413.71,-454.95 423.21,-450.27 412.86,-448 413.71,-454.95"/>
</g>
<!-- get_feeds_with_entries&#45;&gt;fetch_feeds -->
<g id="edge12" class="edge">
<title>get_feeds_with_entries&#45;&gt;fetch_feeds</title>
<path fill="none" stroke="black" d="M750.55,-453.43C758.78,-454.66 767.01,-455.89 774.88,-457.06"/>
<polygon fill="black" stroke="black" points="774.2,-460.5 784.61,-458.51 775.23,-453.57 774.2,-460.5"/>
</g>
</g>
</svg>
