<?xml version="1.0" encoding="UTF-8" standalone="no"?>
<!DOCTYPE svg PUBLIC "-//W3C//DTD SVG 1.1//EN"
 "http://www.w3.org/Graphics/SVG/1.1/DTD/svg11.dtd">
<!-- Generated by graphviz version 12.2.1 (0)
 -->
<!-- Title: build_dependencies Pages: 1 -->
<svg width="889pt" height="937pt"
 viewBox="0.00 0.00 889.00 936.71" xmlns="http://www.w3.org/2000/svg" xmlns:xlink="http://www.w3.org/1999/xlink">
<g id="graph0" class="graph" transform="scale(1 1) rotate(0) translate(4 932.71)">
<title>build_dependencies</title>
<polygon fill="white" stroke="none" points="-4,4 -4,-932.71 885,-932.71 885,4 -4,4"/>
<!-- website -->
<g id="node1" class="node">
<title>website</title>
<path fill="none" stroke="black" d="M49.75,-445.65C49.75,-445.65 12,-445.65 12,-445.65 6,-445.65 0,-439.65 0,-433.65 0,-433.65 0,-421.65 0,-421.65 0,-415.65 6,-409.65 12,-409.65 12,-409.65 49.75,-409.65 49.75,-409.65 55.75,-409.65 61.75,-415.65 61.75,-421.65 61.75,-421.65 61.75,-433.65 61.75,-433.65 61.75,-439.65 55.75,-445.65 49.75,-445.65"/>
<text text-anchor="middle" x="30.88" y="-421.85" font-family="Helvetica,sans-Serif" font-size="14.00">website</text>
</g>
<!-- archive -->
<g id="node2" class="node">
<title>archive</title>
<path fill="none" stroke="black" d="M457.5,-179.65C457.5,-179.65 422,-179.65 422,-179.65 416,-179.65 410,-173.65 410,-167.65 410,-167.65 410,-155.65 410,-155.65 410,-149.65 416,-143.65 422,-143.65 422,-143.65 457.5,-143.65 457.5,-143.65 463.5,-143.65 469.5,-149.65 469.5,-155.65 469.5,-155.65 469.5,-167.65 469.5,-167.65 469.5,-173.65 463.5,-179.65 457.5,-179.65"/>
<text text-anchor="middle" x="439.75" y="-155.85" font-family="Helvetica,sans-Serif" font-size="14.00">archive</text>
</g>
<!-- website&#45;&gt;archive -->
<g id="edge26" class="edge">
<title>website&#45;&gt;archive</title>
<path fill="none" stroke="black" d="M33.94,-409.2C40.25,-356.52 61.1,-207.28 97.75,-177.65 142.88,-141.15 318.57,-151.13 398.62,-157.84"/>
<polygon fill="black" stroke="black" points="397.93,-161.29 408.2,-158.67 398.54,-154.32 397.93,-161.29"/>
</g>
<!-- asset:CNAME -->
<g id="node6" class="node">
<title>asset:CNAME</title>
<path fill="none" stroke="black" d="M260.75,-872.65C260.75,-872.65 183.25,-872.65 183.25,-872.65 177.25,-872.65 171.25,-866.65 171.25,-860.65 171.25,-860.65 171.25,-848.65 171.25,-848.65 171.25,-842.65 177.25,-836.65 183.25,-836.65 183.25,-836.65 260.75,-836.65 260.75,-836.65 266.75,-836.65 272.75,-842.65 272.75,-848.65 272.75,-848.65 272.75,-860.65 272.75,-860.65 272.75,-866.65 266.75,-872.65 260.75,-872.65"/>
<text text-anchor="middle" x="222" y="-848.85" font-family="Helvetica,sans-Serif" font-size="14.00">asset:CNAME</text>
</g>
<!-- website&#45;&gt;asset:CNAME -->
<g id="edge27" class="edge">
<title>website&#45;&gt;asset:CNAME</title>
<path fill="none" stroke="black" d="M32.26,-445.82C34.11,-516.44 44.46,-771.49 97.75,-827.65 113.62,-844.37 137.26,-851.9 159.61,-854.98"/>
<polygon fill="black" stroke="black" points="158.96,-858.43 169.28,-856.02 159.71,-851.47 158.96,-858.43"/>
</g>
<!-- asset:assets/archive.js -->
<g id="node7" class="node">
<title>asset:assets/archive.js</title>
<path fill="none" stroke="black" d="M285.88,-818.65C285.88,-818.65 158.12,-818.65 158.12,-818.65 152.12,-818.65 146.12,-812.65 146.12,-806.65 146.12,-806.65 146.12,-794.65 146.12,-794.65 146.12,-788.65 152.12,-782.65 158.12,-782.65 158.12,-782.65 285.88,-782.65 285.88,-782.65 291.88,-782.65 297.88,-788.65 297.88,-794.65 297.88,-794.65 297.88,-806.65 297.88,-806.65 297.88,-812.65 291.88,-818.65 285.88,-818.65"/>
<text text-anchor="middle" x="222" y="-794.85" font-family="Helvetica,sans-Serif" font-size="14.00">asset:assets/archive.js</text>
</g>
<!-- website&#45;&gt;asset:assets/archive.js -->
<g id="edge28" class="edge">
<title>website&#45;&gt;asset:assets/archive.js</title>
<path fill="none" stroke="black" d="M32.77,-445.98C36.32,-510.55 51.49,-726.09 97.75,-773.65 107.91,-784.09 121.12,-790.93 135.1,-795.34"/>
<polygon fill="black" stroke="black" points="133.88,-798.63 144.44,-797.85 135.7,-791.87 133.88,-798.63"/>
</g>
<!-- asset:assets/favicon.svg -->
<g id="node8" class="node">
<title>asset:assets/favicon.svg</title>
<path fill="none" stroke="black" d="M291.12,-764.65C291.12,-764.65 152.88,-764.65 152.88,-764.65 146.88,-764.65 140.88,-758.65 140.88,-752.65 140.88,-752.65 140.88,-740.65 140.88,-740.65 140.88,-734.65 146.88,-728.65 152.88,-728.65 152.88,-728.65 291.12,-728.65 291.12,-728.65 297.12,-728.65 303.12,-734.65 303.12,-740.65 303.12,-740.65 303.12,-752.65 303.12,-752.65 303.12,-758.65 297.12,-764.65 291.12,-764.65"/>
<text text-anchor="middle" x="222" y="-740.85" font-family="Helvetica,sans-Serif" font-size="14.00">asset:assets/favicon.svg</text>
</g>
<!-- website&#45;&gt;asset:assets/favicon.svg -->
<g id="edge29" class="edge">
<title>website&#45;&gt;asset:assets/favicon.svg</title>
<path fill="none" stroke="black" d="M33.47,-445.88C38.87,-503.57 58.4,-680.54 97.75,-719.65 106.7,-728.54 117.87,-734.8 129.8,-739.16"/>
<polygon fill="black" stroke="black" points="128.41,-742.39 139,-742.07 130.52,-735.72 128.41,-742.39"/>
</g>
<!-- asset:assets/indiewebcamp&#45;button.svg -->
<g id="node9" class="node">
<title>asset:assets/indiewebcamp&#45;button.svg</title>
<path fill="none" stroke="black" d="M334.25,-710.65C334.25,-710.65 109.75,-710.65 109.75,-710.65 103.75,-710.65 97.75,-704.65 97.75,-698.65 97.75,-698.65 97.75,-686.65 97.75,-686.65 97.75,-680.65 103.75,-674.65 109.75,-674.65 109.75,-674.65 334.25,-674.65 334.25,-674.65 340.25,-674.65 346.25,-680.65 346.25,-686.65 346.25,-686.65 346.25,-698.65 346.25,-698.65 346.25,-704.65 340.25,-710.65 334.25,-710.65"/>
<text text-anchor="middle" x="222" y="-686.85" font-family="Helvetica,sans-Serif" font-size="14.00">asset:assets/indiewebcamp&#45;button.svg</text>
</g>
<!-- website&#45;&gt;asset:assets/indiewebcamp&#45;button.svg -->
<g id="edge30" class="edge">
<title>website&#45;&gt;asset:assets/indiewebcamp&#45;button.svg</title>
<path fill="none" stroke="black" d="M31.06,-446C30.14,-490.65 34.4,-605.65 97.75,-665.65 98.38,-666.24 99.01,-666.82 99.66,-667.39"/>
<polygon fill="black" stroke="black" points="97.26,-669.97 107.34,-673.24 101.51,-664.4 97.26,-669.97"/>
</g>
<!-- asset:assets/preview.png -->
<g id="node10" class="node">
<title>asset:assets/preview.png</title>
<path fill="none" stroke="black" d="M293.75,-656.65C293.75,-656.65 150.25,-656.65 150.25,-656.65 144.25,-656.65 138.25,-650.65 138.25,-644.65 138.25,-644.65 138.25,-632.65 138.25,-632.65 138.25,-626.65 144.25,-620.65 150.25,-620.65 150.25,-620.65 293.75,-620.65 293.75,-620.65 299.75,-620.65 305.75,-626.65 305.75,-632.65 305.75,-632.65 305.75,-644.65 305.75,-644.65 305.75,-650.65 299.75,-656.65 293.75,-656.65"/>
<text text-anchor="middle" x="222" y="-632.85" font-family="Helvetica,sans-Serif" font-size="14.00">asset:assets/preview.png</text>
</g>
<!-- website&#45;&gt;asset:assets/preview.png -->
<g id="edge31" class="edge">
<title>website&#45;&gt;asset:assets/preview.png</title>
<path fill="none" stroke="black" d="M32.8,-445.99C35.73,-483.2 47.81,-567.73 97.75,-611.65 106.26,-619.13 116.37,-624.7 127.08,-628.81"/>
<polygon fill="black" stroke="black" points="125.92,-632.11 136.52,-631.97 128.15,-625.47 125.92,-632.11"/>
</g>
<!-- asset:assets/style.css -->
<g id="node11" class="node">
<title>asset:assets/style.css</title>
<path fill="none" stroke="black" d="M283.25,-602.65C283.25,-602.65 160.75,-602.65 160.75,-602.65 154.75,-602.65 148.75,-596.65 148.75,-590.65 148.75,-590.65 148.75,-578.65 148.75,-578.65 148.75,-572.65 154.75,-566.65 160.75,-566.65 160.75,-566.65 283.25,-566.65 283.25,-566.65 289.25,-566.65 295.25,-572.65 295.25,-578.65 295.25,-578.65 295.25,-590.65 295.25,-590.65 295.25,-596.65 289.25,-602.65 283.25,-602.65"/>
<text text-anchor="middle" x="222" y="-578.85" font-family="Helvetica,sans-Serif" font-size="14.00">asset:assets/style.css</text>
</g>
<!-- website&#45;&gt;asset:assets/style.css -->
<g id="edge32" class="edge">
<title>website&#45;&gt;asset:assets/style.css</title>
<path fill="none" stroke="black" d="M36.43,-445.99C44.22,-473.44 62.75,-524.93 97.75,-552.65 109.35,-561.83 123.31,-568.41 137.6,-573.1"/>
<polygon fill="black" stroke="black" points="136.53,-576.43 147.11,-575.91 138.51,-569.72 136.53,-576.43"/>
</g>
<!-- blogroll_feed -->
<g id="node12" class="node">
<title>blogroll_feed</title>
<path fill="none" stroke="black" d="M256.62,-134.65C256.62,-134.65 187.38,-134.65 187.38,-134.65 181.38,-134.65 175.38,-128.65 175.38,-122.65 175.38,-122.65 175.38,-110.65 175.38,-110.65 175.38,-104.65 181.38,-98.65 187.38,-98.65 187.38,-98.65 256.62,-98.65 256.62,-98.65 262.62,-98.65 268.62,-104.65 268.62,-110.65 268.62,-110.65 268.62,-122.65 268.62,-122.65 268.62,-128.65 262.62,-134.65 256.62,-134.65"/>
<text text-anchor="middle" x="222" y="-110.85" font-family="Helvetica,sans-Serif" font-size="14.00">blogroll_feed</text>
</g>
<!-- website&#45;&gt;blogroll_feed -->
<g id="edge33" class="edge">
<title>website&#45;&gt;blogroll_feed</title>
<path fill="none" stroke="black" d="M33.8,-409.17C39.98,-353.26 61.11,-187.36 97.75,-149.65 114.93,-131.96 140.46,-123.42 163.84,-119.41"/>
<polygon fill="black" stroke="black" points="164.2,-122.89 173.6,-118 163.2,-115.97 164.2,-122.89"/>
</g>
<!-- blogroll_opml -->
<g id="node13" class="node">
<title>blogroll_opml</title>
<path fill="none" stroke="black" d="M258.5,-510.65C258.5,-510.65 185.5,-510.65 185.5,-510.65 179.5,-510.65 173.5,-504.65 173.5,-498.65 173.5,-498.65 173.5,-486.65 173.5,-486.65 173.5,-480.65 179.5,-474.65 185.5,-474.65 185.5,-474.65 258.5,-474.65 258.5,-474.65 264.5,-474.65 270.5,-480.65 270.5,-486.65 270.5,-486.65 270.5,-498.65 270.5,-498.65 270.5,-504.65 264.5,-510.65 258.5,-510.65"/>
<text text-anchor="middle" x="222" y="-486.85" font-family="Helvetica,sans-Serif" font-size="14.00">blogroll_opml</text>
</g>
<!-- website&#45;&gt;blogroll_opml -->
<g id="edge34" class="edge">
<title>website&#45;&gt;blogroll_opml</title>
<path fill="none" stroke="black" d="M62.11,-444.47C73.1,-450.13 85.78,-456.15 97.75,-460.65 118.27,-468.35 141.38,-474.89 162,-480.01"/>
<polygon fill="black" stroke="black" points="161.15,-483.4 171.69,-482.35 162.79,-476.6 161.15,-483.4"/>
</g>
<!-- events_calendar -->
<g id="node15" class="node">
<title>events_calendar</title>
<path fill="none" stroke="black" d="M485.25,-764.65C485.25,-764.65 394.25,-764.65 394.25,-764.65 388.25,-764.65 382.25,-758.65 382.25,-752.65 382.25,-752.65 382.25,-740.65 382.25,-740.65 382.25,-734.65 388.25,-728.65 394.25,-728.65 394.25,-728.65 485.25,-728.65 485.25,-728.65 491.25,-728.65 497.25,-734.65 497.25,-740.65 497.25,-740.65 497.25,-752.65 497.25,-752.65 497.25,-758.65 491.25,-764.65 485.25,-764.65"/>
<text text-anchor="middle" x="439.75" y="-740.85" font-family="Helvetica,sans-Serif" font-size="14.00">events_calendar</text>
</g>
<!-- website&#45;&gt;events_calendar -->
<g id="edge35" class="edge">
<title>website&#45;&gt;events_calendar</title>
<path fill="none" stroke="black" d="M31.52,-445.96C30.45,-523.52 30.75,-823.67 97.75,-881.65 181.27,-953.92 248.54,-933.14 346.25,-881.65 388.52,-859.37 415.17,-808.1 428.48,-775.55"/>
<polygon fill="black" stroke="black" points="431.72,-776.89 432.09,-766.3 425.2,-774.35 431.72,-776.89"/>
</g>
<!-- events_feed -->
<g id="node16" class="node">
<title>events_feed</title>
<path fill="none" stroke="black" d="M472.5,-557.65C472.5,-557.65 407,-557.65 407,-557.65 401,-557.65 395,-551.65 395,-545.65 395,-545.65 395,-533.65 395,-533.65 395,-527.65 401,-521.65 407,-521.65 407,-521.65 472.5,-521.65 472.5,-521.65 478.5,-521.65 484.5,-527.65 484.5,-533.65 484.5,-533.65 484.5,-545.65 484.5,-545.65 484.5,-551.65 478.5,-557.65 472.5,-557.65"/>
<text text-anchor="middle" x="439.75" y="-533.85" font-family="Helvetica,sans-Serif" font-size="14.00">events_feed</text>
</g>
<!-- website&#45;&gt;events_feed -->
<g id="edge36" class="edge">
<title>website&#45;&gt;events_feed</title>
<path fill="none" stroke="black" d="M39.11,-445.97C48.82,-467.83 68.33,-503.42 97.75,-519.65 145.3,-545.87 299.33,-544.81 383.16,-542.08"/>
<polygon fill="black" stroke="black" points="383.12,-545.59 392.99,-541.74 382.87,-538.59 383.12,-545.59"/>
</g>
<!-- homepage -->
<g id="node18" class="node">
<title>homepage</title>
<path fill="none" stroke="black" d="M468,-287.65C468,-287.65 411.5,-287.65 411.5,-287.65 405.5,-287.65 399.5,-281.65 399.5,-275.65 399.5,-275.65 399.5,-263.65 399.5,-263.65 399.5,-257.65 405.5,-251.65 411.5,-251.65 411.5,-251.65 468,-251.65 468,-251.65 474,-251.65 480,-257.65 480,-263.65 480,-263.65 480,-275.65 480,-275.65 480,-281.65 474,-287.65 468,-287.65"/>
<text text-anchor="middle" x="439.75" y="-263.85" font-family="Helvetica,sans-Serif" font-size="14.00">homepage</text>
</g>
<!-- website&#45;&gt;homepage -->
<g id="edge37" class="edge">
<title>website&#45;&gt;homepage</title>
<path fill="none" stroke="black" d="M32.74,-409.16C35.54,-373.12 47.41,-293.98 97.75,-259.65 185.18,-200.02 316.7,-228.5 388.16,-251.15"/>
<polygon fill="black" stroke="black" points="387.06,-254.47 397.66,-254.25 389.24,-247.82 387.06,-254.47"/>
</g>
<!-- members_dir -->
<g id="node19" class="node">
<title>members_dir</title>
<path fill="none" stroke="black" d="M475.88,-86.65C475.88,-86.65 403.62,-86.65 403.62,-86.65 397.62,-86.65 391.62,-80.65 391.62,-74.65 391.62,-74.65 391.62,-62.65 391.62,-62.65 391.62,-56.65 397.62,-50.65 403.62,-50.65 403.62,-50.65 475.88,-50.65 475.88,-50.65 481.88,-50.65 487.88,-56.65 487.88,-62.65 487.88,-62.65 487.88,-74.65 487.88,-74.65 487.88,-80.65 481.88,-86.65 475.88,-86.65"/>
<text text-anchor="middle" x="439.75" y="-62.85" font-family="Helvetica,sans-Serif" font-size="14.00">members_dir</text>
</g>
<!-- website&#45;&gt;members_dir -->
<g id="edge38" class="edge">
<title>website&#45;&gt;members_dir</title>
<path fill="none" stroke="black" d="M32.6,-409.48C35.56,-345.54 48.98,-132.41 97.75,-89.65 138.31,-54.08 293.38,-58.45 379.76,-63.97"/>
<polygon fill="black" stroke="black" points="379.5,-67.46 389.71,-64.63 379.96,-60.47 379.5,-67.46"/>
</g>
<!-- newsletter -->
<g id="node20" class="node">
<title>newsletter</title>
<path fill="none" stroke="black" d="M466.5,-503.65C466.5,-503.65 413,-503.65 413,-503.65 407,-503.65 401,-497.65 401,-491.65 401,-491.65 401,-479.65 401,-479.65 401,-473.65 407,-467.65 413,-467.65 413,-467.65 466.5,-467.65 466.5,-467.65 472.5,-467.65 478.5,-473.65 478.5,-479.65 478.5,-479.65 478.5,-491.65 478.5,-491.65 478.5,-497.65 472.5,-503.65 466.5,-503.65"/>
<text text-anchor="middle" x="439.75" y="-479.85" font-family="Helvetica,sans-Serif" font-size="14.00">newsletter</text>
</g>
<!-- website&#45;&gt;newsletter -->
<g id="edge39" class="edge">
<title>website&#45;&gt;newsletter</title>
<path fill="none" stroke="black" d="M61.92,-430.34C118.02,-435.58 242.43,-448.19 346.25,-465.65 360.44,-468.03 375.75,-471.13 389.75,-474.17"/>
<polygon fill="black" stroke="black" points="388.65,-477.51 399.17,-476.25 390.16,-470.67 388.65,-477.51"/>
</g>
<!-- page:coc -->
<g id="node21" class="node">
<title>page:coc</title>
<path fill="none" stroke="black" d="M463.12,-449.65C463.12,-449.65 416.38,-449.65 416.38,-449.65 410.38,-449.65 404.38,-443.65 404.38,-437.65 404.38,-437.65 404.38,-425.65 404.38,-425.65 404.38,-419.65 410.38,-413.65 416.38,-413.65 416.38,-413.65 463.12,-413.65 463.12,-413.65 469.12,-413.65 475.12,-419.65 475.12,-425.65 475.12,-425.65 475.12,-437.65 475.12,-437.65 475.12,-443.65 469.12,-449.65 463.12,-449.65"/>
<text text-anchor="middle" x="439.75" y="-425.85" font-family="Helvetica,sans-Serif" font-size="14.00">page:coc</text>
</g>
<!-- website&#45;&gt;page:coc -->
<g id="edge40" class="edge">
<title>website&#45;&gt;page:coc</title>
<path fill="none" stroke="black" d="M62.12,-427.94C132.67,-428.64 308.48,-430.37 392.55,-431.19"/>
<polygon fill="black" stroke="black" points="392.48,-434.69 402.51,-431.29 392.55,-427.69 392.48,-434.69"/>
</g>
<!-- page:topics -->
<g id="node22" class="node">
<title>page:topics</title>
<path fill="none" stroke="black" d="M470.25,-395.65C470.25,-395.65 409.25,-395.65 409.25,-395.65 403.25,-395.65 397.25,-389.65 397.25,-383.65 397.25,-383.65 397.25,-371.65 397.25,-371.65 397.25,-365.65 403.25,-359.65 409.25,-359.65 409.25,-359.65 470.25,-359.65 470.25,-359.65 476.25,-359.65 482.25,-365.65 482.25,-371.65 482.25,-371.65 482.25,-383.65 482.25,-383.65 482.25,-389.65 476.25,-395.65 470.25,-395.65"/>
<text text-anchor="middle" x="439.75" y="-371.85" font-family="Helvetica,sans-Serif" font-size="14.00">page:topics</text>
</g>
<!-- website&#45;&gt;page:topics -->
<g id="edge41" class="edge">
<title>website&#45;&gt;page:topics</title>
<path fill="none" stroke="black" d="M62.12,-423.93C130.79,-415.49 299.19,-394.8 385.64,-384.17"/>
<polygon fill="black" stroke="black" points="386.02,-387.65 395.52,-382.96 385.17,-380.7 386.02,-387.65"/>
</g>
<!-- page:webring -->
<g id="node23" class="node">
<title>page:webring</title>
<path fill="none" stroke="black" d="M476.25,-341.65C476.25,-341.65 403.25,-341.65 403.25,-341.65 397.25,-341.65 391.25,-335.65 391.25,-329.65 391.25,-329.65 391.25,-317.65 391.25,-317.65 391.25,-311.65 397.25,-305.65 403.25,-305.65 403.25,-305.65 476.25,-305.65 476.25,-305.65 482.25,-305.65 488.25,-311.65 488.25,-317.65 488.25,-317.65 488.25,-329.65 488.25,-329.65 488.25,-335.65 482.25,-341.65 476.25,-341.65"/>
<text text-anchor="middle" x="439.75" y="-317.85" font-family="Helvetica,sans-Serif" font-size="14.00">page:webring</text>
</g>
<!-- website&#45;&gt;page:webring -->
<g id="edge42" class="edge">
<title>website&#45;&gt;page:webring</title>
<path fill="none" stroke="black" d="M55.68,-409.28C67.69,-400.87 82.85,-391.49 97.75,-385.65 192.2,-348.61 310.17,-333.46 379.69,-327.44"/>
<polygon fill="black" stroke="black" points="379.66,-330.95 389.33,-326.64 379.08,-323.98 379.66,-330.95"/>
</g>
<!-- sitemap -->
<g id="node25" class="node">
<title>sitemap</title>
<path fill="none" stroke="black" d="M242,-304.65C242,-304.65 202,-304.65 202,-304.65 196,-304.65 190,-298.65 190,-292.65 190,-292.65 190,-280.65 190,-280.65 190,-274.65 196,-268.65 202,-268.65 202,-268.65 242,-268.65 242,-268.65 248,-268.65 254,-274.65 254,-280.65 254,-280.65 254,-292.65 254,-292.65 254,-298.65 248,-304.65 242,-304.65"/>
<text text-anchor="middle" x="222" y="-280.85" font-family="Helvetica,sans-Serif" font-size="14.00">sitemap</text>
</g>
<!-- website&#45;&gt;sitemap -->
<g id="edge43" class="edge">
<title>website&#45;&gt;sitemap</title>
<path fill="none" stroke="black" d="M38.01,-409.18C47.11,-384.7 66.55,-341.91 97.75,-318.65 121.04,-301.29 152.88,-293.32 178.37,-289.67"/>
<polygon fill="black" stroke="black" points="178.58,-293.17 188.08,-288.47 177.72,-286.23 178.58,-293.17"/>
</g>
<!-- webring -->
<g id="node26" class="node">
<title>webring</title>
<path fill="none" stroke="black" d="M459.38,-233.65C459.38,-233.65 420.12,-233.65 420.12,-233.65 414.12,-233.65 408.12,-227.65 408.12,-221.65 408.12,-221.65 408.12,-209.65 408.12,-209.65 408.12,-203.65 414.12,-197.65 420.12,-197.65 420.12,-197.65 459.38,-197.65 459.38,-197.65 465.38,-197.65 471.38,-203.65 471.38,-209.65 471.38,-209.65 471.38,-221.65 471.38,-221.65 471.38,-227.65 465.38,-233.65 459.38,-233.65"/>
<text text-anchor="middle" x="439.75" y="-209.85" font-family="Helvetica,sans-Serif" font-size="14.00">webring</text>
</g>
<!-- website&#45;&gt;webring -->
<g id="edge44" class="edge">
<title>website&#45;&gt;webring</title>
<path fill="none" stroke="black" d="M31.22,-409.25C30.86,-367.35 36.59,-264.99 97.75,-219.65 186.51,-153.85 327.06,-181.85 396.74,-201.87"/>
<polygon fill="black" stroke="black" points="395.66,-205.2 406.24,-204.69 397.65,-198.49 395.66,-205.2"/>
</g>
<!-- weeknotes_blogroll_feed -->
<g id="node27" class="node">
<title>weeknotes_blogroll_feed</title>
<path fill="none" stroke="black" d="M292.62,-42.65C292.62,-42.65 151.38,-42.65 151.38,-42.65 145.38,-42.65 139.38,-36.65 139.38,-30.65 139.38,-30.65 139.38,-18.65 139.38,-18.65 139.38,-12.65 145.38,-6.65 151.38,-6.65 151.38,-6.65 292.62,-6.65 292.62,-6.65 298.62,-6.65 304.62,-12.65 304.62,-18.65 304.62,-18.65 304.62,-30.65 304.62,-30.65 304.62,-36.65 298.62,-42.65 292.62,-42.65"/>
<text text-anchor="middle" x="222" y="-18.85" font-family="Helvetica,sans-Serif" font-size="14.00">weeknotes_blogroll_feed</text>
</g>
<!-- website&#45;&gt;weeknotes_blogroll_feed -->
<g id="edge45" class="edge">
<title>website&#45;&gt;weeknotes_blogroll_feed</title>
<path fill="none" stroke="black" d="M32.58,-409.47C35.55,-342.29 49.23,-109.12 97.75,-56.65 106.14,-47.57 116.74,-40.94 128.18,-36.11"/>
<polygon fill="black" stroke="black" points="129.3,-39.43 137.48,-32.68 126.88,-32.86 129.3,-39.43"/>
</g>
<!-- archive_index -->
<g id="node3" class="node">
<title>archive_index</title>
<path fill="none" stroke="black" d="M634.38,-286.65C634.38,-286.65 559.12,-286.65 559.12,-286.65 553.12,-286.65 547.12,-280.65 547.12,-274.65 547.12,-274.65 547.12,-262.65 547.12,-262.65 547.12,-256.65 553.12,-250.65 559.12,-250.65 559.12,-250.65 634.38,-250.65 634.38,-250.65 640.38,-250.65 646.38,-256.65 646.38,-262.65 646.38,-262.65 646.38,-274.65 646.38,-274.65 646.38,-280.65 640.38,-286.65 634.38,-286.65"/>
<text text-anchor="middle" x="596.75" y="-262.85" font-family="Helvetica,sans-Serif" font-size="14.00">archive_index</text>
</g>
<!-- archive&#45;&gt;archive_index -->
<g id="edge1" class="edge">
<title>archive&#45;&gt;archive_index</title>
<path fill="none" stroke="black" d="M469.81,-172C479.2,-176.23 489.25,-181.77 497.25,-188.65 518.85,-207.21 511.31,-223.5 533.25,-241.65 534.53,-242.71 535.86,-243.73 537.23,-244.72"/>
<polygon fill="black" stroke="black" points="535.13,-247.53 545.44,-249.95 538.89,-241.63 535.13,-247.53"/>
</g>
<!-- archive_year:2025 -->
<g id="node4" class="node">
<title>archive_year:2025</title>
<path fill="none" stroke="black" d="M648.25,-232.65C648.25,-232.65 545.25,-232.65 545.25,-232.65 539.25,-232.65 533.25,-226.65 533.25,-220.65 533.25,-220.65 533.25,-208.65 533.25,-208.65 533.25,-202.65 539.25,-196.65 545.25,-196.65 545.25,-196.65 648.25,-196.65 648.25,-196.65 654.25,-196.65 660.25,-202.65 660.25,-208.65 660.25,-208.65 660.25,-220.65 660.25,-220.65 660.25,-226.65 654.25,-232.65 648.25,-232.65"/>
<text text-anchor="middle" x="596.75" y="-208.85" font-family="Helvetica,sans-Serif" font-size="14.00">archive_year:2025</text>
</g>
<!-- archive&#45;&gt;archive_year:2025 -->
<g id="edge2" class="edge">
<title>archive&#45;&gt;archive_year:2025</title>
<path fill="none" stroke="black" d="M469.9,-171.62C487.23,-177.54 509.93,-185.3 531.28,-192.6"/>
<polygon fill="black" stroke="black" points="529.92,-195.84 540.51,-195.76 532.18,-189.21 529.92,-195.84"/>
</g>
<!-- archive_year:2026 -->
<g id="node5" class="node">
<title>archive_year:2026</title>
<path fill="none" stroke="black" d="M648.25,-178.65C648.25,-178.65 545.25,-178.65 545.25,-178.65 539.25,-178.65 533.25,-172.65 533.25,-166.65 533.25,-166.65 533.25,-154.65 533.25,-154.65 533.25,-148.65 539.25,-142.65 545.25,-142.65 545.25,-142.65 648.25,-142.65 648.25,-142.65 654.25,-142.65 660.25,-148.65 660.25,-154.65 660.25,-154.65 660.25,-166.65 660.25,-166.65 660.25,-172.65 654.25,-178.65 648.25,-178.65"/>
<text text-anchor="middle" x="596.75" y="-154.85" font-family="Helvetica,sans-Serif" font-size="14.00">archive_year:2026</text>
</g>
<!-- archive&#45;&gt;archive_year:2026 -->
<g id="edge3" class="edge">
<title>archive&#45;&gt;archive_year:2026</title>
<path fill="none" stroke="black" d="M469.9,-161.46C484.65,-161.36 503.27,-161.24 521.65,-161.12"/>
<polygon fill="black" stroke="black" points="521.53,-164.63 531.5,-161.06 521.48,-157.63 521.53,-164.63"/>
</g>
<!-- feeds -->
<g id="node17" class="node">
<title>feeds</title>
<path fill="none" stroke="black" d="M738.25,-205.65C738.25,-205.65 708.25,-205.65 708.25,-205.65 702.25,-205.65 696.25,-199.65 696.25,-193.65 696.25,-193.65 696.25,-181.65 696.25,-181.65 696.25,-175.65 702.25,-169.65 708.25,-169.65 708.25,-169.65 738.25,-169.65 738.25,-169.65 744.25,-169.65 750.25,-175.65 750.25,-181.65 750.25,-181.65 750.25,-193.65 750.25,-193.65 750.25,-199.65 744.25,-205.65 738.25,-205.65"/>
<text text-anchor="middle" x="723.25" y="-181.85" font-family="Helvetica,sans-Serif" font-size="14.00">feeds</text>
</g>
<!-- archive&#45;&gt;feeds -->
<g id="edge4" class="edge">
<title>archive&#45;&gt;feeds</title>
<path fill="none" stroke="black" d="M469.8,-170.31C479.64,-174.49 489.97,-180.43 497.25,-188.65 530.51,-226.21 492.5,-266.37 533.25,-295.65 579.09,-328.59 611.4,-323.93 660.25,-295.65 689.42,-278.76 706.06,-242.37 714.61,-216.51"/>
<polygon fill="black" stroke="black" points="717.86,-217.85 717.44,-207.27 711.17,-215.8 717.86,-217.85"/>
</g>
<!-- archive_index&#45;&gt;feeds -->
<g id="edge5" class="edge">
<title>archive_index&#45;&gt;feeds</title>
<path fill="none" stroke="black" d="M644.65,-250.29C650.04,-247.63 655.35,-244.73 660.25,-241.65 672.8,-233.74 685.38,-223.36 695.89,-213.81"/>
<polygon fill="black" stroke="black" points="698.16,-216.47 703.08,-207.09 693.39,-211.36 698.16,-216.47"/>
</g>
<!-- archive_year:2025&#45;&gt;feeds -->
<g id="edge6" class="edge">
<title>archive_year:2025&#45;&gt;feeds</title>
<path fill="none" stroke="black" d="M660.73,-200.99C668.98,-199.2 677.21,-197.41 684.85,-195.76"/>
<polygon fill="black" stroke="black" points="685.4,-199.22 694.43,-193.68 683.91,-192.38 685.4,-199.22"/>
</g>
<!-- archive_year:2026&#45;&gt;feeds -->
<g id="edge7" class="edge">
<title>archive_year:2026&#45;&gt;feeds</title>
<path fill="none" stroke="black" d="M660.73,-174.3C668.98,-176.09 677.21,-177.88 684.85,-179.54"/>
<polygon fill="black" stroke="black" points="683.91,-182.91 694.43,-181.61 685.4,-176.07 683.91,-182.91"/>
</g>
<!-- blogroll_feed&#45;&gt;feeds -->
<g id="edge8" class="edge">
<title>blogroll_feed&#45;&gt;feeds</title>
<path fill="none" stroke="black" d="M269.1,-108.74C351.14,-96.75 526.44,-80.56 660.25,-133.65 675.01,-139.5 688.65,-150.47 699.36,-161"/>
<polygon fill="black" stroke="black" points="696.78,-163.36 706.23,-168.15 701.83,-158.51 696.78,-163.36"/>
</g>
<!-- blogroll_feed&#45;&gt;members_dir -->
<g id="edge9" class="edge">
<title>blogroll_feed&#45;&gt;members_dir</title>
<path fill="none" stroke="black" d="M269.02,-106.41C301.52,-99.18 345.32,-89.43 380.29,-81.65"/>
<polygon fill="black" stroke="black" points="380.83,-85.12 389.83,-79.53 379.31,-78.29 380.83,-85.12"/>
</g>
<!-- events -->
<g id="node14" class="node">
<title>events</title>
<path fill="none" stroke="black" d="M612.62,-557.65C612.62,-557.65 580.88,-557.65 580.88,-557.65 574.88,-557.65 568.88,-551.65 568.88,-545.65 568.88,-545.65 568.88,-533.65 568.88,-533.65 568.88,-527.65 574.88,-521.65 580.88,-521.65 580.88,-521.65 612.62,-521.65 612.62,-521.65 618.62,-521.65 624.62,-527.65 624.62,-533.65 624.62,-533.65 624.62,-545.65 624.62,-545.65 624.62,-551.65 618.62,-557.65 612.62,-557.65"/>
<text text-anchor="middle" x="596.75" y="-533.85" font-family="Helvetica,sans-Serif" font-size="14.00">events</text>
</g>
<!-- events_calendar&#45;&gt;events -->
<g id="edge10" class="edge">
<title>events_calendar&#45;&gt;events</title>
<path fill="none" stroke="black" d="M454.51,-728.28C481.85,-691.76 543.17,-609.87 575.27,-567"/>
<polygon fill="black" stroke="black" points="577.93,-569.29 581.12,-559.19 572.32,-565.09 577.93,-569.29"/>
</g>
<!-- events_feed&#45;&gt;events -->
<g id="edge11" class="edge">
<title>events_feed&#45;&gt;events</title>
<path fill="none" stroke="black" d="M484.75,-539.65C507.66,-539.65 535.41,-539.65 557.43,-539.65"/>
<polygon fill="black" stroke="black" points="557.18,-543.15 567.18,-539.65 557.18,-536.15 557.18,-543.15"/>
</g>
<!-- parsed_opml -->
<g id="node24" class="node">
<title>parsed_opml</title>
<path fill="none" stroke="black" d="M869,-130.65C869,-130.65 798.25,-130.65 798.25,-130.65 792.25,-130.65 786.25,-124.65 786.25,-118.65 786.25,-118.65 786.25,-106.65 786.25,-106.65 786.25,-100.65 792.25,-94.65 798.25,-94.65 798.25,-94.65 869,-94.65 869,-94.65 875,-94.65 881,-100.65 881,-106.65 881,-106.65 881,-118.65 881,-118.65 881,-124.65 875,-130.65 869,-130.65"/>
<text text-anchor="middle" x="833.62" y="-106.85" font-family="Helvetica,sans-Serif" font-size="14.00">parsed_opml</text>
</g>
<!-- feeds&#45;&gt;parsed_opml -->
<g id="edge12" class="edge">
<title>feeds&#45;&gt;parsed_opml</title>
<path fill="none" stroke="black" d="M750.48,-169.49C764.49,-159.8 781.93,-147.73 797.13,-137.21"/>
<polygon fill="black" stroke="black" points="798.78,-140.32 805.01,-131.76 794.8,-134.57 798.78,-140.32"/>
</g>
<!-- homepage&#45;&gt;events -->
<g id="edge13" class="edge">
<title>homepage&#45;&gt;events</title>
<path fill="none" stroke="black" d="M480.36,-283.46C486.63,-287 492.57,-291.35 497.25,-296.65 530.74,-334.57 514.59,-357.62 533.25,-404.65 548.07,-441.99 567.95,-483.8 581.28,-510.86"/>
<polygon fill="black" stroke="black" points="578.13,-512.39 585.71,-519.8 584.4,-509.28 578.13,-512.39"/>
</g>
<!-- homepage&#45;&gt;feeds -->
<g id="edge14" class="edge">
<title>homepage&#45;&gt;feeds</title>
<path fill="none" stroke="black" d="M480.26,-285.42C486.26,-288.67 492.14,-292.42 497.25,-296.65 518.07,-313.88 509.14,-333.44 533.25,-345.65 583.61,-371.14 613.61,-377.44 660.25,-345.65 702.54,-316.81 715.98,-254.37 720.26,-217.2"/>
<polygon fill="black" stroke="black" points="723.71,-217.89 721.2,-207.6 716.74,-217.21 723.71,-217.89"/>
</g>
<!-- members_dir&#45;&gt;feeds -->
<g id="edge15" class="edge">
<title>members_dir&#45;&gt;feeds</title>
<path fill="none" stroke="black" d="M488.02,-65.22C535.07,-64.06 607.66,-68.53 660.25,-100.65 682.55,-114.27 699.09,-139.25 709.45,-158.96"/>
<polygon fill="black" stroke="black" points="706.31,-160.51 713.89,-167.91 712.58,-157.4 706.31,-160.51"/>
</g>
<!-- members_dir&#45;&gt;parsed_opml -->
<g id="edge16" class="edge">
<title>members_dir&#45;&gt;parsed_opml</title>
<path fill="none" stroke="black" d="M488.25,-64.97C502.69,-64.02 518.61,-63.12 533.25,-62.65 589.66,-60.82 604.37,-54.71 660.25,-62.65 699.33,-68.2 741.94,-80.5 775.02,-91.51"/>
<polygon fill="black" stroke="black" points="773.83,-94.8 784.42,-94.7 776.08,-88.17 773.83,-94.8"/>
</g>
<!-- sitemap&#45;&gt;archive -->
<g id="edge17" class="edge">
<title>sitemap&#45;&gt;archive</title>
<path fill="none" stroke="black" d="M250.95,-268.2C282.33,-247.77 335.07,-214.34 382.25,-188.65 387.74,-185.66 393.61,-182.65 399.42,-179.78"/>
<polygon fill="black" stroke="black" points="400.87,-182.97 408.35,-175.46 397.82,-176.67 400.87,-182.97"/>
</g>
<!-- sitemap&#45;&gt;homepage -->
<g id="edge18" class="edge">
<title>sitemap&#45;&gt;homepage</title>
<path fill="none" stroke="black" d="M254.37,-284.17C289.41,-281.41 346.64,-276.9 388.05,-273.64"/>
<polygon fill="black" stroke="black" points="388.08,-277.15 397.77,-272.88 387.53,-270.17 388.08,-277.15"/>
</g>
<!-- sitemap&#45;&gt;members_dir -->
<g id="edge19" class="edge">
<title>sitemap&#45;&gt;members_dir</title>
<path fill="none" stroke="black" d="M241.02,-268.44C279.18,-229.88 368.23,-139.9 412.62,-95.04"/>
<polygon fill="black" stroke="black" points="415.01,-97.61 419.56,-88.04 410.04,-92.68 415.01,-97.61"/>
</g>
<!-- sitemap&#45;&gt;newsletter -->
<g id="edge20" class="edge">
<title>sitemap&#45;&gt;newsletter</title>
<path fill="none" stroke="black" d="M236.28,-305.1C261.52,-339.11 319.5,-412.43 382.25,-458.65 384.88,-460.58 387.66,-462.43 390.54,-464.19"/>
<polygon fill="black" stroke="black" points="388.78,-467.22 399.21,-469.09 392.22,-461.13 388.78,-467.22"/>
</g>
<!-- sitemap&#45;&gt;page:coc -->
<g id="edge21" class="edge">
<title>sitemap&#45;&gt;page:coc</title>
<path fill="none" stroke="black" d="M244.99,-305.08C274.87,-329.61 330.51,-373.51 382.25,-404.65 386.02,-406.92 390.01,-409.14 394.06,-411.28"/>
<polygon fill="black" stroke="black" points="392.28,-414.31 402.79,-415.72 395.45,-408.07 392.28,-414.31"/>
</g>
<!-- sitemap&#45;&gt;page:topics -->
<g id="edge22" class="edge">
<title>sitemap&#45;&gt;page:topics</title>
<path fill="none" stroke="black" d="M254.37,-299.88C288.99,-314.48 345.27,-338.22 386.55,-355.63"/>
<polygon fill="black" stroke="black" points="385,-358.77 395.57,-359.44 387.72,-352.32 385,-358.77"/>
</g>
<!-- sitemap&#45;&gt;page:webring -->
<g id="edge23" class="edge">
<title>sitemap&#45;&gt;page:webring</title>
<path fill="none" stroke="black" d="M254.37,-292.03C287.17,-297.65 339.4,-306.61 379.91,-313.56"/>
<polygon fill="black" stroke="black" points="379.06,-316.96 389.51,-315.2 380.24,-310.06 379.06,-316.96"/>
</g>
<!-- sitemap&#45;&gt;webring -->
<g id="edge24" class="edge">
<title>sitemap&#45;&gt;webring</title>
<path fill="none" stroke="black" d="M254.37,-276.32C291.95,-263.96 355.04,-243.19 396.78,-229.46"/>
<polygon fill="black" stroke="black" points="397.85,-232.79 406.25,-226.34 395.66,-226.14 397.85,-232.79"/>
</g>
<!-- webring&#45;&gt;feeds -->
<g id="edge25" class="edge">
<title>webring&#45;&gt;feeds</title>
<path fill="none" stroke="black" d="M471.66,-225.79C480.75,-229.92 490.15,-235.45 497.25,-242.65 524.07,-269.82 501.09,-300.07 533.25,-320.65 580.8,-351.07 612.65,-350.98 660.25,-320.65 695.88,-297.95 711.36,-248.85 717.85,-217.08"/>
<polygon fill="black" stroke="black" points="721.28,-217.8 719.65,-207.33 714.39,-216.53 721.28,-217.8"/>
</g>
<!-- weeknotes_blogroll_feed&#45;&gt;feeds -->
<g id="edge46" class="edge">
<title>weeknotes_blogroll_feed&#45;&gt;feeds</title>
<path fill="none" stroke="black" d="M305.1,-8.75C399.81,4.78 555.85,11.76 660.25,-62.65 691.98,-85.26 708.31,-128.8 716.07,-158.05"/>
<polygon fill="black" stroke="black" points="712.67,-158.88 718.45,-167.76 719.47,-157.21 712.67,-158.88"/>
</g>
<!-- weeknotes_blogroll_feed&#45;&gt;members_dir -->
<g id="edge47" class="edge">
<title>weeknotes_blogroll_feed&#45;&gt;members_dir</title>
<path fill="none" stroke="black" d="M304.87,-41.34C329.97,-46.46 357.07,-51.99 380.27,-56.72"/>
<polygon fill="black" stroke="black" points="379.35,-60.1 389.84,-58.67 380.75,-53.25 379.35,-60.1"/>
</g>
</g>
</svg>
