<?xml version="1.0" encoding="UTF-8" standalone="no"?>
<!DOCTYPE svg PUBLIC "-//W3C//DTD SVG 1.1//EN"
 "http://www.w3.org/Graphics/SVG/1.1/DTD/svg11.dtd">
<!-- Generated by graphviz version 12.2.1 (0)
 -->
<!-- Title: build_dependencies Pages: 1 -->
<svg width="1036pt" height="968pt"
 viewBox="0.00 0.00 1036.25 968.00" xmlns="http://www.w3.org/2000/svg" xmlns:xlink="http://www.w3.org/1999/xlink">
<g id="graph0" class="graph" transform="scale(1 1) rotate(0) translate(4 964)">
<title>build_dependencies</title>
<polygon fill="white" stroke="none" points="-4,4 -4,-964 1032.25,-964 1032.25,4 -4,4"/>
<!-- website -->
<g id="node1" class="node">
<title>website</title>
<path fill="none" stroke="black" d="M49.75,-490C49.75,-490 12,-490 12,-490 6,-490 0,-484 0,-478 0,-478 0,-466 0,-466 0,-460 6,-454 12,-454 12,-454 49.75,-454 49.75,-454 55.75,-454 61.75,-460 61.75,-466 61.75,-466 61.75,-478 61.75,-478 61.75,-484 55.75,-490 49.75,-490"/>
<text text-anchor="middle" x="30.88" y="-466.2" font-family="Helvetica,sans-Serif" font-size="14.00">website</text>
</g>
<!-- copy_assets:CNAME -->
<g id="node2" class="node">
<title>copy_assets:CNAME</title>
<path fill="none" stroke="black" d="M303.5,-960C303.5,-960 183.25,-960 183.25,-960 177.25,-960 171.25,-954 171.25,-948 171.25,-948 171.25,-936 171.25,-936 171.25,-930 177.25,-924 183.25,-924 183.25,-924 303.5,-924 303.5,-924 309.5,-924 315.5,-930 315.5,-936 315.5,-936 315.5,-948 315.5,-948 315.5,-954 309.5,-960 303.5,-960"/>
<text text-anchor="middle" x="243.38" y="-936.2" font-family="Helvetica,sans-Serif" font-size="14.00">copy_assets:CNAME</text>
</g>
<!-- website&#45;&gt;copy_assets:CNAME -->
<g id="edge20" class="edge">
<title>website&#45;&gt;copy_assets:CNAME</title>
<path fill="none" stroke="black" d="M31.88,-490.33C32.31,-566 37.93,-852.92 97.75,-915 113.9,-931.75 136.86,-940 159.75,-943.68"/>
<polygon fill="black" stroke="black" points="159.09,-947.12 169.45,-944.94 159.99,-940.18 159.09,-947.12"/>
</g>
<!-- copy_assets:assets/archive.js -->
<g id="node3" class="node">
<title>copy_assets:assets/archive.js</title>
<path fill="none" stroke="black" d="M328.62,-906C328.62,-906 158.12,-906 158.12,-906 152.12,-906 146.12,-900 146.12,-894 146.12,-894 146.12,-882 146.12,-882 146.12,-876 152.12,-870 158.12,-870 158.12,-870 328.62,-870 328.62,-870 334.62,-870 340.62,-876 340.62,-882 340.62,-882 340.62,-894 340.62,-894 340.62,-900 334.62,-906 328.62,-906"/>
<text text-anchor="middle" x="243.38" y="-882.2" font-family="Helvetica,sans-Serif" font-size="14.00">copy_assets:assets/archive.js</text>
</g>
<!-- website&#45;&gt;copy_assets:assets/archive.js -->
<g id="edge21" class="edge">
<title>website&#45;&gt;copy_assets:assets/archive.js</title>
<path fill="none" stroke="black" d="M32.3,-490.2C34.29,-559.73 45.04,-807.4 97.75,-861 108.1,-871.52 121.14,-878.67 135.13,-883.43"/>
<polygon fill="black" stroke="black" points="133.96,-886.73 144.54,-886.2 135.93,-880.02 133.96,-886.73"/>
</g>
<!-- copy_assets:assets/favicon.svg -->
<g id="node4" class="node">
<title>copy_assets:assets/favicon.svg</title>
<path fill="none" stroke="black" d="M333.88,-852C333.88,-852 152.88,-852 152.88,-852 146.88,-852 140.88,-846 140.88,-840 140.88,-840 140.88,-828 140.88,-828 140.88,-822 146.88,-816 152.88,-816 152.88,-816 333.88,-816 333.88,-816 339.88,-816 345.88,-822 345.88,-828 345.88,-828 345.88,-840 345.88,-840 345.88,-846 339.88,-852 333.88,-852"/>
<text text-anchor="middle" x="243.38" y="-828.2" font-family="Helvetica,sans-Serif" font-size="14.00">copy_assets:assets/favicon.svg</text>
</g>
<!-- website&#45;&gt;copy_assets:assets/favicon.svg -->
<g id="edge22" class="edge">
<title>website&#45;&gt;copy_assets:assets/favicon.svg</title>
<path fill="none" stroke="black" d="M32.84,-490.24C36.57,-553.47 52.16,-761.85 97.75,-807 106.87,-816.04 117.99,-822.56 129.97,-827.22"/>
<polygon fill="black" stroke="black" points="128.66,-830.47 139.25,-830.36 130.9,-823.84 128.66,-830.47"/>
</g>
<!-- copy_assets:assets/indiewebcamp&#45;button.svg -->
<g id="node5" class="node">
<title>copy_assets:assets/indiewebcamp&#45;button.svg</title>
<path fill="none" stroke="black" d="M377,-798C377,-798 109.75,-798 109.75,-798 103.75,-798 97.75,-792 97.75,-786 97.75,-786 97.75,-774 97.75,-774 97.75,-768 103.75,-762 109.75,-762 109.75,-762 377,-762 377,-762 383,-762 389,-768 389,-774 389,-774 389,-786 389,-786 389,-792 383,-798 377,-798"/>
<text text-anchor="middle" x="243.38" y="-774.2" font-family="Helvetica,sans-Serif" font-size="14.00">copy_assets:assets/indiewebcamp&#45;button.svg</text>
</g>
<!-- website&#45;&gt;copy_assets:assets/indiewebcamp&#45;button.svg -->
<g id="edge23" class="edge">
<title>website&#45;&gt;copy_assets:assets/indiewebcamp&#45;button.svg</title>
<path fill="none" stroke="black" d="M33.6,-490.4C39.28,-546.88 59.25,-716.22 97.75,-753 98.37,-753.6 99.01,-754.18 99.65,-754.75"/>
<polygon fill="black" stroke="black" points="97.19,-757.28 107.22,-760.68 101.5,-751.76 97.19,-757.28"/>
</g>
<!-- copy_assets:assets/preview.png -->
<g id="node6" class="node">
<title>copy_assets:assets/preview.png</title>
<path fill="none" stroke="black" d="M336.5,-744C336.5,-744 150.25,-744 150.25,-744 144.25,-744 138.25,-738 138.25,-732 138.25,-732 138.25,-720 138.25,-720 138.25,-714 144.25,-708 150.25,-708 150.25,-708 336.5,-708 336.5,-708 342.5,-708 348.5,-714 348.5,-720 348.5,-720 348.5,-732 348.5,-732 348.5,-738 342.5,-744 336.5,-744"/>
<text text-anchor="middle" x="243.38" y="-720.2" font-family="Helvetica,sans-Serif" font-size="14.00">copy_assets:assets/preview.png</text>
</g>
<!-- website&#45;&gt;copy_assets:assets/preview.png -->
<g id="edge24" class="edge">
<title>website&#45;&gt;copy_assets:assets/preview.png</title>
<path fill="none" stroke="black" d="M31.24,-490.29C30.8,-533.64 36.19,-643.19 97.75,-699 106.35,-706.8 116.46,-712.68 127.27,-717.08"/>
<polygon fill="black" stroke="black" points="125.81,-720.27 136.4,-720.35 128.16,-713.68 125.81,-720.27"/>
</g>
<!-- copy_assets:assets/style.css -->
<g id="node7" class="node">
<title>copy_assets:assets/style.css</title>
<path fill="none" stroke="black" d="M326,-690C326,-690 160.75,-690 160.75,-690 154.75,-690 148.75,-684 148.75,-678 148.75,-678 148.75,-666 148.75,-666 148.75,-660 154.75,-654 160.75,-654 160.75,-654 326,-654 326,-654 332,-654 338,-660 338,-666 338,-666 338,-678 338,-678 338,-684 332,-690 326,-690"/>
<text text-anchor="middle" x="243.38" y="-666.2" font-family="Helvetica,sans-Serif" font-size="14.00">copy_assets:assets/style.css</text>
</g>
<!-- website&#45;&gt;copy_assets:assets/style.css -->
<g id="edge25" class="edge">
<title>website&#45;&gt;copy_assets:assets/style.css</title>
<path fill="none" stroke="black" d="M33.17,-490.49C36.74,-526.29 49.89,-605.04 97.75,-645 109.15,-654.52 122.84,-661.11 137.19,-665.61"/>
<polygon fill="black" stroke="black" points="136.23,-668.98 146.8,-668.25 138.09,-662.23 136.23,-668.98"/>
</g>
<!-- copy_opml -->
<g id="node8" class="node">
<title>copy_opml</title>
<path fill="none" stroke="black" d="M272.38,-636C272.38,-636 214.38,-636 214.38,-636 208.38,-636 202.38,-630 202.38,-624 202.38,-624 202.38,-612 202.38,-612 202.38,-606 208.38,-600 214.38,-600 214.38,-600 272.38,-600 272.38,-600 278.38,-600 284.38,-606 284.38,-612 284.38,-612 284.38,-624 284.38,-624 284.38,-630 278.38,-636 272.38,-636"/>
<text text-anchor="middle" x="243.38" y="-612.2" font-family="Helvetica,sans-Serif" font-size="14.00">copy_opml</text>
</g>
<!-- website&#45;&gt;copy_opml -->
<g id="edge26" class="edge">
<title>website&#45;&gt;copy_opml</title>
<path fill="none" stroke="black" d="M37.21,-490.17C45.69,-515.72 64.74,-561.82 97.75,-586 124.49,-605.59 160.96,-613.56 190.59,-616.65"/>
<polygon fill="black" stroke="black" points="190.22,-620.14 200.48,-617.51 190.82,-613.16 190.22,-620.14"/>
</g>
<!-- generate_archive -->
<g id="node11" class="node">
<title>generate_archive</title>
<path fill="none" stroke="black" d="M540.38,-644C540.38,-644 444.12,-644 444.12,-644 438.12,-644 432.12,-638 432.12,-632 432.12,-632 432.12,-620 432.12,-620 432.12,-614 438.12,-608 444.12,-608 444.12,-608 540.38,-608 540.38,-608 546.38,-608 552.38,-614 552.38,-620 552.38,-620 552.38,-632 552.38,-632 552.38,-638 546.38,-644 540.38,-644"/>
<text text-anchor="middle" x="492.25" y="-620.2" font-family="Helvetica,sans-Serif" font-size="14.00">generate_archive</text>
</g>
<!-- website&#45;&gt;generate_archive -->
<g id="edge27" class="edge">
<title>website&#45;&gt;generate_archive</title>
<path fill="none" stroke="black" d="M41.23,-490.25C52.06,-509.35 71.79,-538.52 97.75,-553 211.75,-616.6 261.89,-561.27 389,-591 403.49,-594.39 418.81,-599.04 433.06,-603.84"/>
<polygon fill="black" stroke="black" points="431.69,-607.07 442.28,-607.02 433.97,-600.45 431.69,-607.07"/>
</g>
<!-- generate_blogroll -->
<g id="node15" class="node">
<title>generate_blogroll</title>
<path fill="none" stroke="black" d="M291.5,-544C291.5,-544 195.25,-544 195.25,-544 189.25,-544 183.25,-538 183.25,-532 183.25,-532 183.25,-520 183.25,-520 183.25,-514 189.25,-508 195.25,-508 195.25,-508 291.5,-508 291.5,-508 297.5,-508 303.5,-514 303.5,-520 303.5,-520 303.5,-532 303.5,-532 303.5,-538 297.5,-544 291.5,-544"/>
<text text-anchor="middle" x="243.38" y="-520.2" font-family="Helvetica,sans-Serif" font-size="14.00">generate_blogroll</text>
</g>
<!-- website&#45;&gt;generate_blogroll -->
<g id="edge28" class="edge">
<title>website&#45;&gt;generate_blogroll</title>
<path fill="none" stroke="black" d="M62.24,-485.96C73.25,-490.62 85.89,-495.5 97.75,-499 121.54,-506.02 148.1,-511.6 171.9,-515.82"/>
<polygon fill="black" stroke="black" points="171.03,-519.22 181.48,-517.47 172.22,-512.32 171.03,-519.22"/>
</g>
<!-- generate_events_calendar -->
<g id="node16" class="node">
<title>generate_events_calendar</title>
<path fill="none" stroke="black" d="M319.25,-252C319.25,-252 167.5,-252 167.5,-252 161.5,-252 155.5,-246 155.5,-240 155.5,-240 155.5,-228 155.5,-228 155.5,-222 161.5,-216 167.5,-216 167.5,-216 319.25,-216 319.25,-216 325.25,-216 331.25,-222 331.25,-228 331.25,-228 331.25,-240 331.25,-240 331.25,-246 325.25,-252 319.25,-252"/>
<text text-anchor="middle" x="243.38" y="-228.2" font-family="Helvetica,sans-Serif" font-size="14.00">generate_events_calendar</text>
</g>
<!-- website&#45;&gt;generate_events_calendar -->
<g id="edge29" class="edge">
<title>website&#45;&gt;generate_events_calendar</title>
<path fill="none" stroke="black" d="M31.71,-453.75C32.4,-412.59 40.23,-312.1 97.75,-261 110.75,-249.45 127.07,-242.13 144.01,-237.62"/>
<polygon fill="black" stroke="black" points="144.78,-241.03 153.74,-235.38 143.21,-234.21 144.78,-241.03"/>
</g>
<!-- generate_events_feed -->
<g id="node17" class="node">
<title>generate_events_feed</title>
<path fill="none" stroke="black" d="M306.5,-306C306.5,-306 180.25,-306 180.25,-306 174.25,-306 168.25,-300 168.25,-294 168.25,-294 168.25,-282 168.25,-282 168.25,-276 174.25,-270 180.25,-270 180.25,-270 306.5,-270 306.5,-270 312.5,-270 318.5,-276 318.5,-282 318.5,-282 318.5,-294 318.5,-294 318.5,-300 312.5,-306 306.5,-306"/>
<text text-anchor="middle" x="243.38" y="-282.2" font-family="Helvetica,sans-Serif" font-size="14.00">generate_events_feed</text>
</g>
<!-- website&#45;&gt;generate_events_feed -->
<g id="edge30" class="edge">
<title>website&#45;&gt;generate_events_feed</title>
<path fill="none" stroke="black" d="M33.96,-453.63C38.77,-420.4 53.82,-350.46 97.75,-315 114.43,-301.54 135.72,-294 156.79,-289.95"/>
<polygon fill="black" stroke="black" points="157.32,-293.41 166.62,-288.34 156.18,-286.5 157.32,-293.41"/>
</g>
<!-- generate_homepage -->
<g id="node18" class="node">
<title>generate_homepage</title>
<path fill="none" stroke="black" d="M302,-360C302,-360 184.75,-360 184.75,-360 178.75,-360 172.75,-354 172.75,-348 172.75,-348 172.75,-336 172.75,-336 172.75,-330 178.75,-324 184.75,-324 184.75,-324 302,-324 302,-324 308,-324 314,-330 314,-336 314,-336 314,-348 314,-348 314,-354 308,-360 302,-360"/>
<text text-anchor="middle" x="243.38" y="-336.2" font-family="Helvetica,sans-Serif" font-size="14.00">generate_homepage</text>
</g>
<!-- website&#45;&gt;generate_homepage -->
<g id="edge31" class="edge">
<title>website&#45;&gt;generate_homepage</title>
<path fill="none" stroke="black" d="M39.09,-453.69C48.89,-431.27 68.62,-393.86 97.75,-374 116.47,-361.24 139.44,-353.47 161.51,-348.77"/>
<polygon fill="black" stroke="black" points="161.95,-352.25 171.11,-346.93 160.63,-345.37 161.95,-352.25"/>
</g>
<!-- generate_members -->
<g id="node19" class="node">
<title>generate_members</title>
<path fill="none" stroke="black" d="M547.5,-460C547.5,-460 437,-460 437,-460 431,-460 425,-454 425,-448 425,-448 425,-436 425,-436 425,-430 431,-424 437,-424 437,-424 547.5,-424 547.5,-424 553.5,-424 559.5,-430 559.5,-436 559.5,-436 559.5,-448 559.5,-448 559.5,-454 553.5,-460 547.5,-460"/>
<text text-anchor="middle" x="492.25" y="-436.2" font-family="Helvetica,sans-Serif" font-size="14.00">generate_members</text>
</g>
<!-- website&#45;&gt;generate_members -->
<g id="edge32" class="edge">
<title>website&#45;&gt;generate_members</title>
<path fill="none" stroke="black" d="M61.95,-456.85C72.93,-452.09 85.63,-447.43 97.75,-445 205.48,-423.35 333.17,-427.72 413.21,-433.96"/>
<polygon fill="black" stroke="black" points="412.91,-437.45 423.16,-434.77 413.48,-430.47 412.91,-437.45"/>
</g>
<!-- generate_newsletter_page -->
<g id="node20" class="node">
<title>generate_newsletter_page</title>
<path fill="none" stroke="black" d="M319.25,-198C319.25,-198 167.5,-198 167.5,-198 161.5,-198 155.5,-192 155.5,-186 155.5,-186 155.5,-174 155.5,-174 155.5,-168 161.5,-162 167.5,-162 167.5,-162 319.25,-162 319.25,-162 325.25,-162 331.25,-168 331.25,-174 331.25,-174 331.25,-186 331.25,-186 331.25,-192 325.25,-198 319.25,-198"/>
<text text-anchor="middle" x="243.38" y="-174.2" font-family="Helvetica,sans-Serif" font-size="14.00">generate_newsletter_page</text>
</g>
<!-- website&#45;&gt;generate_newsletter_page -->
<g id="edge33" class="edge">
<title>website&#45;&gt;generate_newsletter_page</title>
<path fill="none" stroke="black" d="M33.85,-453.88C40.1,-399.83 61.27,-241.39 97.75,-207 110.6,-194.89 127.06,-187.35 144.25,-182.79"/>
<polygon fill="black" stroke="black" points="144.57,-186.31 153.54,-180.67 143.01,-179.49 144.57,-186.31"/>
</g>
<!-- generate_webring -->
<g id="node21" class="node">
<title>generate_webring</title>
<path fill="none" stroke="black" d="M542.25,-406C542.25,-406 442.25,-406 442.25,-406 436.25,-406 430.25,-400 430.25,-394 430.25,-394 430.25,-382 430.25,-382 430.25,-376 436.25,-370 442.25,-370 442.25,-370 542.25,-370 542.25,-370 548.25,-370 554.25,-376 554.25,-382 554.25,-382 554.25,-394 554.25,-394 554.25,-400 548.25,-406 542.25,-406"/>
<text text-anchor="middle" x="492.25" y="-382.2" font-family="Helvetica,sans-Serif" font-size="14.00">generate_webring</text>
</g>
<!-- website&#45;&gt;generate_webring -->
<g id="edge34" class="edge">
<title>website&#45;&gt;generate_webring</title>
<path fill="none" stroke="black" d="M51.6,-453.69C63.92,-443.4 80.64,-431.38 97.75,-425 204.45,-385.24 338.16,-381.48 419.04,-383.75"/>
<polygon fill="black" stroke="black" points="418.47,-387.24 428.58,-384.06 418.69,-380.24 418.47,-387.24"/>
</g>
<!-- generate_weeknotes_blogroll -->
<g id="node22" class="node">
<title>generate_weeknotes_blogroll</title>
<path fill="none" stroke="black" d="M327.5,-490C327.5,-490 159.25,-490 159.25,-490 153.25,-490 147.25,-484 147.25,-478 147.25,-478 147.25,-466 147.25,-466 147.25,-460 153.25,-454 159.25,-454 159.25,-454 327.5,-454 327.5,-454 333.5,-454 339.5,-460 339.5,-466 339.5,-466 339.5,-478 339.5,-478 339.5,-484 333.5,-490 327.5,-490"/>
<text text-anchor="middle" x="243.38" y="-466.2" font-family="Helvetica,sans-Serif" font-size="14.00">generate_weeknotes_blogroll</text>
</g>
<!-- website&#45;&gt;generate_weeknotes_blogroll -->
<g id="edge35" class="edge">
<title>website&#45;&gt;generate_weeknotes_blogroll</title>
<path fill="none" stroke="black" d="M62.03,-472C81.72,-472 108.71,-472 135.82,-472"/>
<polygon fill="black" stroke="black" points="135.5,-475.5 145.5,-472 135.5,-468.5 135.5,-475.5"/>
</g>
<!-- render_page:coc -->
<g id="node25" class="node">
<title>render_page:coc</title>
<path fill="none" stroke="black" d="M290,-144C290,-144 196.75,-144 196.75,-144 190.75,-144 184.75,-138 184.75,-132 184.75,-132 184.75,-120 184.75,-120 184.75,-114 190.75,-108 196.75,-108 196.75,-108 290,-108 290,-108 296,-108 302,-114 302,-120 302,-120 302,-132 302,-132 302,-138 296,-144 290,-144"/>
<text text-anchor="middle" x="243.38" y="-120.2" font-family="Helvetica,sans-Serif" font-size="14.00">render_page:coc</text>
</g>
<!-- website&#45;&gt;render_page:coc -->
<g id="edge36" class="edge">
<title>website&#45;&gt;render_page:coc</title>
<path fill="none" stroke="black" d="M33.03,-453.78C37.31,-392.55 54.25,-195.67 97.75,-153 117.45,-133.67 146.29,-125.85 173.04,-123.26"/>
<polygon fill="black" stroke="black" points="173.11,-126.77 182.84,-122.56 172.61,-119.78 173.11,-126.77"/>
</g>
<!-- render_page:topics -->
<g id="node26" class="node">
<title>render_page:topics</title>
<path fill="none" stroke="black" d="M297.12,-90C297.12,-90 189.62,-90 189.62,-90 183.62,-90 177.62,-84 177.62,-78 177.62,-78 177.62,-66 177.62,-66 177.62,-60 183.62,-54 189.62,-54 189.62,-54 297.12,-54 297.12,-54 303.12,-54 309.12,-60 309.12,-66 309.12,-66 309.12,-78 309.12,-78 309.12,-84 303.12,-90 297.12,-90"/>
<text text-anchor="middle" x="243.38" y="-66.2" font-family="Helvetica,sans-Serif" font-size="14.00">render_page:topics</text>
</g>
<!-- website&#45;&gt;render_page:topics -->
<g id="edge37" class="edge">
<title>website&#45;&gt;render_page:topics</title>
<path fill="none" stroke="black" d="M32.45,-453.62C34.95,-385.68 47.2,-150.05 97.75,-99 115.52,-81.06 141.13,-72.95 165.88,-69.75"/>
<polygon fill="black" stroke="black" points="166.06,-73.25 175.65,-68.76 165.35,-66.29 166.06,-73.25"/>
</g>
<!-- render_page:webring -->
<g id="node27" class="node">
<title>render_page:webring</title>
<path fill="none" stroke="black" d="M303.12,-36C303.12,-36 183.62,-36 183.62,-36 177.62,-36 171.62,-30 171.62,-24 171.62,-24 171.62,-12 171.62,-12 171.62,-6 177.62,0 183.62,0 183.62,0 303.12,0 303.12,0 309.12,0 315.12,-6 315.12,-12 315.12,-12 315.12,-24 315.12,-24 315.12,-30 309.12,-36 303.12,-36"/>
<text text-anchor="middle" x="243.38" y="-12.2" font-family="Helvetica,sans-Serif" font-size="14.00">render_page:webring</text>
</g>
<!-- website&#45;&gt;render_page:webring -->
<g id="edge38" class="edge">
<title>website&#45;&gt;render_page:webring</title>
<path fill="none" stroke="black" d="M32,-453.58C32.88,-379.5 40.07,-104.52 97.75,-45 114.02,-28.21 137.14,-19.98 160.13,-16.32"/>
<polygon fill="black" stroke="black" points="160.41,-19.82 169.88,-15.07 159.52,-12.87 160.41,-19.82"/>
</g>
<!-- fetch_events -->
<g id="node9" class="node">
<title>fetch_events</title>
<path fill="none" stroke="black" d="M526.5,-306C526.5,-306 458,-306 458,-306 452,-306 446,-300 446,-294 446,-294 446,-282 446,-282 446,-276 452,-270 458,-270 458,-270 526.5,-270 526.5,-270 532.5,-270 538.5,-276 538.5,-282 538.5,-282 538.5,-294 538.5,-294 538.5,-300 532.5,-306 526.5,-306"/>
<text text-anchor="middle" x="492.25" y="-282.2" font-family="Helvetica,sans-Serif" font-size="14.00">fetch_events</text>
</g>
<!-- fetch_feeds -->
<g id="node10" class="node">
<title>fetch_feeds</title>
<path fill="none" stroke="black" d="M893,-567C893,-567 831.25,-567 831.25,-567 825.25,-567 819.25,-561 819.25,-555 819.25,-555 819.25,-543 819.25,-543 819.25,-537 825.25,-531 831.25,-531 831.25,-531 893,-531 893,-531 899,-531 905,-537 905,-543 905,-543 905,-555 905,-555 905,-561 899,-567 893,-567"/>
<text text-anchor="middle" x="862.12" y="-543.2" font-family="Helvetica,sans-Serif" font-size="14.00">fetch_feeds</text>
</g>
<!-- parse_opml -->
<g id="node24" class="node">
<title>parse_opml</title>
<path fill="none" stroke="black" d="M1016.25,-567C1016.25,-567 953,-567 953,-567 947,-567 941,-561 941,-555 941,-555 941,-543 941,-543 941,-537 947,-531 953,-531 953,-531 1016.25,-531 1016.25,-531 1022.25,-531 1028.25,-537 1028.25,-543 1028.25,-543 1028.25,-555 1028.25,-555 1028.25,-561 1022.25,-567 1016.25,-567"/>
<text text-anchor="middle" x="984.62" y="-543.2" font-family="Helvetica,sans-Serif" font-size="14.00">parse_opml</text>
</g>
<!-- fetch_feeds&#45;&gt;parse_opml -->
<g id="edge1" class="edge">
<title>fetch_feeds&#45;&gt;parse_opml</title>
<path fill="none" stroke="black" d="M905.27,-549C913.11,-549 921.41,-549 929.55,-549"/>
<polygon fill="black" stroke="black" points="929.38,-552.5 939.38,-549 929.38,-545.5 929.38,-552.5"/>
</g>
<!-- generate_archive&#45;&gt;fetch_feeds -->
<g id="edge2" class="edge">
<title>generate_archive&#45;&gt;fetch_feeds</title>
<path fill="none" stroke="black" d="M509.11,-644.41C527.54,-664.25 560,-694.64 595.5,-707 674.31,-734.43 712.39,-751.07 783.25,-707 828.47,-678.87 848.21,-615.89 856.2,-578.5"/>
<polygon fill="black" stroke="black" points="859.61,-579.31 858.11,-568.82 852.74,-577.95 859.61,-579.31"/>
</g>
<!-- generate_archive_index -->
<g id="node12" class="node">
<title>generate_archive_index</title>
<path fill="none" stroke="black" d="M757.38,-698C757.38,-698 621.38,-698 621.38,-698 615.38,-698 609.38,-692 609.38,-686 609.38,-686 609.38,-674 609.38,-674 609.38,-668 615.38,-662 621.38,-662 621.38,-662 757.38,-662 757.38,-662 763.38,-662 769.38,-668 769.38,-674 769.38,-674 769.38,-686 769.38,-686 769.38,-692 763.38,-698 757.38,-698"/>
<text text-anchor="middle" x="689.38" y="-674.2" font-family="Helvetica,sans-Serif" font-size="14.00">generate_archive_index</text>
</g>
<!-- generate_archive&#45;&gt;generate_archive_index -->
<g id="edge3" class="edge">
<title>generate_archive&#45;&gt;generate_archive_index</title>
<path fill="none" stroke="black" d="M552.85,-642.5C571.11,-647.55 591.48,-653.18 610.75,-658.52"/>
<polygon fill="black" stroke="black" points="609.61,-661.83 620.18,-661.13 611.48,-655.09 609.61,-661.83"/>
</g>
<!-- generate_archive_year:2025 -->
<g id="node13" class="node">
<title>generate_archive_year:2025</title>
<path fill="none" stroke="black" d="M771.25,-644C771.25,-644 607.5,-644 607.5,-644 601.5,-644 595.5,-638 595.5,-632 595.5,-632 595.5,-620 595.5,-620 595.5,-614 601.5,-608 607.5,-608 607.5,-608 771.25,-608 771.25,-608 777.25,-608 783.25,-614 783.25,-620 783.25,-620 783.25,-632 783.25,-632 783.25,-638 777.25,-644 771.25,-644"/>
<text text-anchor="middle" x="689.38" y="-620.2" font-family="Helvetica,sans-Serif" font-size="14.00">generate_archive_year:2025</text>
</g>
<!-- generate_archive&#45;&gt;generate_archive_year:2025 -->
<g id="edge4" class="edge">
<title>generate_archive&#45;&gt;generate_archive_year:2025</title>
<path fill="none" stroke="black" d="M552.85,-626C562.84,-626 573.45,-626 584.16,-626"/>
<polygon fill="black" stroke="black" points="583.84,-629.5 593.84,-626 583.83,-622.5 583.84,-629.5"/>
</g>
<!-- generate_archive_year:2026 -->
<g id="node14" class="node">
<title>generate_archive_year:2026</title>
<path fill="none" stroke="black" d="M771.25,-590C771.25,-590 607.5,-590 607.5,-590 601.5,-590 595.5,-584 595.5,-578 595.5,-578 595.5,-566 595.5,-566 595.5,-560 601.5,-554 607.5,-554 607.5,-554 771.25,-554 771.25,-554 777.25,-554 783.25,-560 783.25,-566 783.25,-566 783.25,-578 783.25,-578 783.25,-584 777.25,-590 771.25,-590"/>
<text text-anchor="middle" x="689.38" y="-566.2" font-family="Helvetica,sans-Serif" font-size="14.00">generate_archive_year:2026</text>
</g>
<!-- generate_archive&#45;&gt;generate_archive_year:2026 -->
<g id="edge5" class="edge">
<title>generate_archive&#45;&gt;generate_archive_year:2026</title>
<path fill="none" stroke="black" d="M552.85,-609.5C571.11,-604.45 591.48,-598.82 610.75,-593.48"/>
<polygon fill="black" stroke="black" points="611.48,-596.91 620.18,-590.87 609.61,-590.17 611.48,-596.91"/>
</g>
<!-- generate_archive_index&#45;&gt;fetch_feeds -->
<g id="edge6" class="edge">
<title>generate_archive_index&#45;&gt;fetch_feeds</title>
<path fill="none" stroke="black" d="M768.18,-661.63C773.47,-659.11 778.56,-656.25 783.25,-653 811.36,-633.54 833.48,-600.67 846.85,-577.08"/>
<polygon fill="black" stroke="black" points="849.75,-579.08 851.48,-568.63 843.61,-575.72 849.75,-579.08"/>
</g>
<!-- generate_archive_year:2025&#45;&gt;fetch_feeds -->
<g id="edge7" class="edge">
<title>generate_archive_year:2025&#45;&gt;fetch_feeds</title>
<path fill="none" stroke="black" d="M761.63,-607.58C769.04,-604.99 776.37,-602.13 783.25,-599 798.43,-592.1 814.11,-582.57 827.38,-573.68"/>
<polygon fill="black" stroke="black" points="829.06,-576.77 835.33,-568.23 825.1,-571 829.06,-576.77"/>
</g>
<!-- generate_archive_year:2026&#45;&gt;fetch_feeds -->
<g id="edge8" class="edge">
<title>generate_archive_year:2026&#45;&gt;fetch_feeds</title>
<path fill="none" stroke="black" d="M783.74,-559.42C791.91,-558.32 799.98,-557.24 807.65,-556.2"/>
<polygon fill="black" stroke="black" points="808,-559.69 817.44,-554.88 807.07,-552.75 808,-559.69"/>
</g>
<!-- generate_blogroll&#45;&gt;fetch_feeds -->
<g id="edge9" class="edge">
<title>generate_blogroll&#45;&gt;fetch_feeds</title>
<path fill="none" stroke="black" d="M303.79,-527.78C403.1,-530.83 609.06,-537.46 783.25,-545 791.16,-545.34 799.51,-545.74 807.7,-546.14"/>
<polygon fill="black" stroke="black" points="807.42,-549.63 817.59,-546.64 807.78,-542.64 807.42,-549.63"/>
</g>
<!-- generate_blogroll&#45;&gt;generate_members -->
<g id="edge10" class="edge">
<title>generate_blogroll&#45;&gt;generate_members</title>
<path fill="none" stroke="black" d="M303.93,-519.31C330.49,-515.21 361.85,-508.8 389,-499 411.85,-490.75 435.65,-477.78 454.53,-466.29"/>
<polygon fill="black" stroke="black" points="456.27,-469.33 462.92,-461.08 452.58,-463.39 456.27,-469.33"/>
</g>
<!-- generate_events_calendar&#45;&gt;fetch_events -->
<g id="edge11" class="edge">
<title>generate_events_calendar&#45;&gt;fetch_events</title>
<path fill="none" stroke="black" d="M331.39,-249.17C350.43,-252.79 370.44,-256.82 389,-261 403.84,-264.34 419.79,-268.35 434.58,-272.24"/>
<polygon fill="black" stroke="black" points="433.59,-275.6 444.15,-274.79 435.39,-268.84 433.59,-275.6"/>
</g>
<!-- generate_events_feed&#45;&gt;fetch_events -->
<g id="edge12" class="edge">
<title>generate_events_feed&#45;&gt;fetch_events</title>
<path fill="none" stroke="black" d="M318.78,-288C355.9,-288 400.08,-288 434.43,-288"/>
<polygon fill="black" stroke="black" points="434.17,-291.5 444.17,-288 434.17,-284.5 434.17,-291.5"/>
</g>
<!-- generate_homepage&#45;&gt;fetch_events -->
<g id="edge13" class="edge">
<title>generate_homepage&#45;&gt;fetch_events</title>
<path fill="none" stroke="black" d="M314.47,-329.99C338.21,-325.63 364.83,-320.44 389,-315 403.84,-311.66 419.79,-307.65 434.58,-303.76"/>
<polygon fill="black" stroke="black" points="435.39,-307.16 444.15,-301.21 433.59,-300.4 435.39,-307.16"/>
</g>
<!-- generate_homepage&#45;&gt;fetch_feeds -->
<g id="edge14" class="edge">
<title>generate_homepage&#45;&gt;fetch_feeds</title>
<path fill="none" stroke="black" d="M314.32,-331.54C425.34,-318.93 643.6,-310.9 783.25,-415 818.79,-441.5 840.84,-489.39 852.05,-520.17"/>
<polygon fill="black" stroke="black" points="848.61,-520.93 855.19,-529.23 855.22,-518.64 848.61,-520.93"/>
</g>
<!-- get_feeds_with_entries -->
<g id="node23" class="node">
<title>get_feeds_with_entries</title>
<path fill="none" stroke="black" d="M754.75,-460C754.75,-460 624,-460 624,-460 618,-460 612,-454 612,-448 612,-448 612,-436 612,-436 612,-430 618,-424 624,-424 624,-424 754.75,-424 754.75,-424 760.75,-424 766.75,-430 766.75,-436 766.75,-436 766.75,-448 766.75,-448 766.75,-454 760.75,-460 754.75,-460"/>
<text text-anchor="middle" x="689.38" y="-436.2" font-family="Helvetica,sans-Serif" font-size="14.00">get_feeds_with_entries</text>
</g>
<!-- generate_members&#45;&gt;get_feeds_with_entries -->
<g id="edge15" class="edge">
<title>generate_members&#45;&gt;get_feeds_with_entries</title>
<path fill="none" stroke="black" d="M559.86,-442C572.88,-442 586.72,-442 600.32,-442"/>
<polygon fill="black" stroke="black" points="600.15,-445.5 610.15,-442 600.15,-438.5 600.15,-445.5"/>
</g>
<!-- generate_webring&#45;&gt;get_feeds_with_entries -->
<g id="edge16" class="edge">
<title>generate_webring&#45;&gt;get_feeds_with_entries</title>
<path fill="none" stroke="black" d="M554.72,-405.01C572.56,-409.95 592.27,-415.4 610.95,-420.57"/>
<polygon fill="black" stroke="black" points="609.77,-423.88 620.34,-423.17 611.64,-417.13 609.77,-423.88"/>
</g>
<!-- generate_weeknotes_blogroll&#45;&gt;fetch_feeds -->
<g id="edge17" class="edge">
<title>generate_weeknotes_blogroll&#45;&gt;fetch_feeds</title>
<path fill="none" stroke="black" d="M339.57,-480.75C447.48,-491.19 628.5,-510.23 783.25,-534 791.11,-535.21 799.39,-536.63 807.5,-538.12"/>
<polygon fill="black" stroke="black" points="806.83,-541.55 817.3,-539.96 808.12,-534.67 806.83,-541.55"/>
</g>
<!-- generate_weeknotes_blogroll&#45;&gt;generate_members -->
<g id="edge18" class="edge">
<title>generate_weeknotes_blogroll&#45;&gt;generate_members</title>
<path fill="none" stroke="black" d="M339.82,-460.4C364.19,-457.44 390.1,-454.29 413.47,-451.45"/>
<polygon fill="black" stroke="black" points="413.71,-454.95 423.21,-450.27 412.86,-448 413.71,-454.95"/>
</g>
<!-- get_feeds_with_entries&#45;&gt;fetch_feeds -->
<g id="edge19" class="edge">
<title>get_feeds_with_entries&#45;&gt;fetch_feeds</title>
<path fill="none" stroke="black" d="M755.48,-460.35C765.11,-464.22 774.67,-468.75 783.25,-474 804.32,-486.9 824.31,-506.36 838.76,-522.23"/>
<polygon fill="black" stroke="black" points="835.94,-524.31 845.19,-529.47 841.17,-519.67 835.94,-524.31"/>
</g>
</g>
</svg>
